<svg width="358" height="197" viewBox="0 0 358 197" fill="none" xmlns="http://www.w3.org/2000/svg">
<path opacity="0.1" d="M81.8514 196.243C66.1759 196.243 52.2121 192.369 39.9601 184.622C27.708 176.874 18.0685 165.703 11.0415 151.109C4.19479 136.334 0.771413 118.767 0.771413 98.4067C0.771413 78.0466 4.19479 60.5694 11.0415 45.975C18.0685 31.2004 27.708 19.9393 39.9601 12.1917C52.2121 4.44404 66.1759 0.57022 81.8514 0.57022C97.5268 0.57022 111.491 4.44404 123.743 12.1917C135.995 19.9393 145.544 31.2004 152.391 45.975C159.418 60.5694 162.931 78.0466 162.931 98.4067C162.931 118.767 159.418 136.334 152.391 151.109C145.544 165.703 135.995 176.874 123.743 184.622C111.491 192.369 97.5268 196.243 81.8514 196.243ZM81.8514 159.217C93.3828 159.217 102.392 154.262 108.878 144.352C115.545 134.442 118.878 119.127 118.878 98.4067C118.878 77.6863 115.545 62.3712 108.878 52.4614C102.392 42.5516 93.3828 37.5967 81.8514 37.5967C70.5002 37.5967 61.4913 42.5516 54.8247 52.4614C48.3383 62.3712 45.0951 77.6863 45.0951 98.4067C45.0951 119.127 48.3383 134.442 54.8247 144.352C61.4913 154.262 70.5002 159.217 81.8514 159.217ZM357.445 153.271H326.635V193H283.933V153.271H182.042V123.812L271.23 3.81341H317.175L234.474 117.596H285.284V82.1907H326.635V117.596H357.445V153.271Z" fill="url(#paint0_linear_401_35)"/>
<defs>
<linearGradient id="paint0_linear_401_35" x1="135.052" y1="-82.9015" x2="196.928" y2="269.184" gradientUnits="userSpaceOnUse">
<stop stop-color="white"/>
<stop offset="1" stop-color="white" stop-opacity="0"/>
</linearGradient>
</defs>
</svg>
