<svg width="1536" height="3776" viewBox="0 0 1536 3776" fill="none" xmlns="http://www.w3.org/2000/svg">
<mask id="mask0_1091_29" style="mask-type:alpha" maskUnits="userSpaceOnUse" x="0" y="38" width="1536" height="3739">
<path d="M0 63.3668C261 -15.5625 480.5 197.744 914.5 138.299C1210 76.8544 1344.5 10.4142 1536 49.8788V3776H0L0 63.3668Z" fill="url(#paint0_linear_1091_29)"/>
<path d="M0 63.3668C261 -15.5625 480.5 197.744 914.5 138.299C1210 76.8544 1344.5 10.4142 1536 49.8788V3776H0L0 63.3668Z" fill="url(#paint1_radial_1091_29)"/>
<path d="M0 63.3668C261 -15.5625 480.5 197.744 914.5 138.299C1210 76.8544 1344.5 10.4142 1536 49.8788V3776H0L0 63.3668Z" fill="url(#paint2_radial_1091_29)"/>
</mask>
<g mask="url(#mask0_1091_29)">
<path d="M1722 268.158C1654.4 307.262 1312.5 334.621 1141.53 308.57C947.934 279.069 673.32 139.915 437.695 159.038C202.071 178.161 -246.931 458.586 -343 506.093V-43.5363H1722L1722 268.158Z" fill="url(#paint3_linear_1091_29)"/>
<path d="M0 63.7568C261 -15.1748 480.5 198.138 914.5 138.691C1210 77.2449 1344.5 10.8027 1536 50.2684V3776H0L0 63.7568Z" fill="url(#paint4_linear_1091_29)"/>
<path d="M0 63.7568C261 -15.1748 480.5 198.138 914.5 138.691C1210 77.2449 1344.5 10.8027 1536 50.2684V3776H0L0 63.7568Z" fill="url(#paint5_radial_1091_29)"/>
<path d="M0 63.7568C261 -15.1748 480.5 198.138 914.5 138.691C1210 77.2449 1344.5 10.8027 1536 50.2684V3776H0L0 63.7568Z" fill="url(#paint6_radial_1091_29)"/>
</g>
<path d="M1576 329.713C1508.4 368.817 1146.92 410.456 995.535 370.124C806.308 319.709 527.32 201.47 291.695 220.593C56.071 239.716 -392.931 520.141 -489 567.647V18.0183H1576L1576 329.713Z" fill="url(#paint7_linear_1091_29)"/>
<path d="M1663 312.118C1595.4 351.222 1260.5 375.584 1082.53 352.53C888.321 327.371 614.32 183.875 378.695 202.998C143.071 222.121 -305.931 502.546 -402 550.053V0.423828H1663L1663 312.118Z" fill="url(#paint8_linear_1091_29)"/>
<defs>
<linearGradient id="paint0_linear_1091_29" x1="768" y1="174.462" x2="768" y2="3856.93" gradientUnits="userSpaceOnUse">
<stop stop-color="#15161E"/>
<stop offset="1" stop-color="#0C0D11"/>
</linearGradient>
<radialGradient id="paint1_radial_1091_29" cx="0" cy="0" r="1" gradientUnits="userSpaceOnUse" gradientTransform="translate(732.5 4048.75) rotate(-90) scale(534.516 683.001)">
<stop stop-color="#8A2E21"/>
<stop offset="1" stop-color="#452B14" stop-opacity="0"/>
</radialGradient>
<radialGradient id="paint2_radial_1091_29" cx="0" cy="0" r="1" gradientUnits="userSpaceOnUse" gradientTransform="translate(1688 2668.5) rotate(-162.315) scale(641.309 818.113)">
<stop stop-color="#8A2E21"/>
<stop offset="1" stop-color="#452B14" stop-opacity="0"/>
</radialGradient>
<linearGradient id="paint3_linear_1091_29" x1="689.5" y1="449.008" x2="689.5" y2="50.4259" gradientUnits="userSpaceOnUse">
<stop stop-color="#FF9C8E" stop-opacity="0.21"/>
<stop offset="1" stop-color="#FFA498" stop-opacity="0"/>
</linearGradient>
<linearGradient id="paint4_linear_1091_29" x1="768" y1="174.856" x2="768" y2="3857.43" gradientUnits="userSpaceOnUse">
<stop stop-color="#15161E"/>
<stop offset="1" stop-color="#0C0D11"/>
</linearGradient>
<radialGradient id="paint5_radial_1091_29" cx="0" cy="0" r="1" gradientUnits="userSpaceOnUse" gradientTransform="translate(732.5 3926.37) rotate(-90) scale(411.639 525.974)">
<stop stop-color="#8A2E21"/>
<stop offset="1" stop-color="#452B14" stop-opacity="0"/>
</radialGradient>
<radialGradient id="paint6_radial_1091_29" cx="0" cy="0" r="1" gradientUnits="userSpaceOnUse" gradientTransform="translate(1688 2668.97) rotate(-178.695) scale(607.658 775.074)">
<stop stop-color="#771E12"/>
<stop offset="1" stop-color="#452B14" stop-opacity="0"/>
</radialGradient>
<linearGradient id="paint7_linear_1091_29" x1="543.5" y1="510.563" x2="543.5" y2="111.98" gradientUnits="userSpaceOnUse">
<stop stop-color="#FF9C8E" stop-opacity="0.21"/>
<stop offset="1" stop-color="#FFA498" stop-opacity="0"/>
</linearGradient>
<linearGradient id="paint8_linear_1091_29" x1="630.5" y1="492.968" x2="630.5" y2="94.386" gradientUnits="userSpaceOnUse">
<stop stop-color="#FF9C8E" stop-opacity="0.21"/>
<stop offset="1" stop-color="#FFA498" stop-opacity="0"/>
</linearGradient>
</defs>
</svg>
