<svg width="24" height="24" viewBox="0 0 24 24" fill="none" xmlns="http://www.w3.org/2000/svg">
<path d="M23.087 7.34532C23.0328 6.11525 22.8339 5.26959 22.5489 4.53682C22.2549 3.759 21.8027 3.06261 21.2102 2.48371C20.6313 1.89579 19.9303 1.43896 19.1615 1.14959C18.4245 0.864642 17.5832 0.665726 16.3532 0.611492C15.1139 0.552665 14.7205 0.539062 11.5774 0.539062C8.43433 0.539062 8.04092 0.552665 6.80626 0.606899C5.57619 0.661133 4.73053 0.860226 3.99793 1.145C3.21993 1.43896 2.52355 1.8912 1.94464 2.48371C1.35673 3.06261 0.900069 3.76359 0.610528 4.5324C0.32558 5.26959 0.126663 6.11066 0.0724295 7.34073C0.0136026 8.57998 0 8.97339 0 12.1165C0 15.2596 0.0136026 15.653 0.0678364 16.8876C0.12207 18.1177 0.321163 18.9634 0.606112 19.6961C0.900069 20.474 1.35673 21.1704 1.94464 21.7493C2.52355 22.3372 3.22453 22.794 3.99334 23.0834C4.73053 23.3683 5.5716 23.5672 6.80184 23.6215C8.03632 23.6759 8.42992 23.6893 11.573 23.6893C14.7161 23.6893 15.1095 23.6759 16.3442 23.6215C17.5742 23.5672 18.4199 23.3683 19.1525 23.0834C20.7083 22.4819 21.9384 21.2518 22.5399 19.6961C22.8247 18.959 23.0238 18.1177 23.078 16.8876C23.1322 15.653 23.1458 15.2596 23.1458 12.1165C23.1458 8.97339 23.1412 8.57998 23.087 7.34532ZM21.0023 16.7972C20.9525 17.9278 20.7625 18.5383 20.6043 18.9454C20.2153 19.9539 19.4148 20.7543 18.4063 21.1433C17.9993 21.3016 17.3843 21.4915 16.2581 21.5412C15.0371 21.5956 14.6709 21.609 11.582 21.609C8.49316 21.609 8.12235 21.5956 6.90571 21.5412C5.77511 21.4915 5.16458 21.3016 4.75756 21.1433C4.25568 20.9578 3.79884 20.6639 3.42804 20.2795C3.04363 19.9041 2.74967 19.4518 2.56418 18.9499C2.4059 18.5429 2.21599 17.9278 2.16635 16.8018C2.11194 15.5807 2.09851 15.2143 2.09851 12.1255C2.09851 9.03664 2.11194 8.66583 2.16635 7.44937C2.21599 6.31876 2.4059 5.70824 2.56418 5.30122C2.74967 4.79916 3.04363 4.3425 3.43263 3.97152C3.80785 3.58711 4.26009 3.29315 4.76215 3.10784C5.16917 2.94955 5.78429 2.75965 6.91031 2.70983C8.13136 2.6556 8.49775 2.64199 11.5864 2.64199C14.6799 2.64199 15.0461 2.6556 16.2627 2.70983C17.3933 2.75965 18.0039 2.94955 18.4109 3.10784C18.9128 3.29315 19.3696 3.58711 19.7404 3.97152C20.1248 4.34691 20.4188 4.79916 20.6043 5.30122C20.7625 5.70824 20.9525 6.32318 21.0023 7.44937C21.0565 8.67043 21.0701 9.03664 21.0701 12.1255C21.0701 15.2143 21.0565 15.5761 21.0023 16.7972Z" fill="#FC6652"/>
<path d="M11.58 6.16895C8.29677 6.16895 5.63296 8.83259 5.63296 12.1159C5.63296 15.3993 8.29677 18.0629 11.58 18.0629C14.8633 18.0629 17.5269 15.3993 17.5269 12.1159C17.5269 8.83259 14.8633 6.16895 11.58 6.16895ZM11.58 15.9736C9.44999 15.9736 7.72228 14.2461 7.72228 12.1159C7.72228 9.98581 9.44999 8.25827 11.58 8.25827C13.7101 8.25827 15.4376 9.98581 15.4376 12.1159C15.4376 14.2461 13.7101 15.9736 11.58 15.9736Z" fill="#FC6652"/>
<path d="M19.1504 5.93401C19.1504 6.7007 18.5287 7.32236 17.7618 7.32236C16.9951 7.32236 16.3735 6.7007 16.3735 5.93401C16.3735 5.16714 16.9951 4.54565 17.7618 4.54565C18.5287 4.54565 19.1504 5.16714 19.1504 5.93401Z" fill="#FC6652"/>
</svg>
