<svg width="24" height="20" viewBox="0 0 24 20" fill="none" xmlns="http://www.w3.org/2000/svg">
<path d="M23.2199 1.16991C22.9407 0.828671 22.5228 0.640625 22.043 0.640625C21.782 0.640625 21.5057 0.695697 21.2217 0.804098L1.88534 8.18529C0.859191 8.5769 0.720988 9.16456 0.729877 9.48018C0.738765 9.79562 0.91008 10.3746 1.95679 10.7074C1.96307 10.7095 1.96934 10.7113 1.97562 10.7132L4.68738 11.4891L17.8942 4.74191C18.2232 4.57356 18.6265 4.70426 18.7947 5.03348C18.9268 5.2921 18.8738 5.59605 18.6856 5.79612L18.6861 5.79664L11.3431 13.5989L11.1336 14.4478L13.7558 16.5594L17.3895 19.4853C17.3926 19.4877 17.3957 19.4904 17.399 19.4928C17.7988 19.803 18.2356 19.9668 18.662 19.967C19.4954 19.967 20.1589 19.3502 20.3522 18.3959L23.5204 2.752C23.6474 2.12425 23.5408 1.56221 23.2199 1.16991Z" fill="#FC6652"/>
<path d="M10.0845 13.1076C10.1112 12.9994 10.1648 12.8962 10.2466 12.8092L15.0649 7.68945L6.12384 12.2573L8.15401 18.0634C8.26973 18.3942 8.44192 18.6758 8.65489 18.8963L10.0841 13.1074L10.0845 13.1076Z" fill="#FC6652"/>
<path d="M9.90198 19.4353C10.3846 19.4313 10.8588 19.2277 11.2742 18.8452L12.7596 17.4775L10.7791 15.8828L9.90198 19.4353Z" fill="#FC6652"/>
</svg>
