<svg width="31" height="19" viewBox="0 0 31 19" fill="none" xmlns="http://www.w3.org/2000/svg">
<path d="M25.1327 10.6995C24.6515 10.0918 24.7892 9.82138 25.1327 9.27812C25.139 9.27191 29.1117 3.78223 29.521 1.9205L29.5235 1.91926C29.7269 1.2408 29.5235 0.742188 28.5399 0.742188H25.2853C24.4568 0.742188 24.0747 1.1701 23.8701 1.64887C23.8701 1.64887 22.213 5.61543 19.8688 8.18663C19.1122 8.92958 18.7624 9.16773 18.3494 9.16773C18.146 9.16773 17.8297 8.92958 17.8297 8.25113V1.91926C17.8297 1.1056 17.5978 0.742188 16.9119 0.742188H11.7943C11.2746 0.742188 10.9657 1.12173 10.9657 1.47522C10.9657 2.2467 12.1378 2.42407 12.2594 4.59464V9.30416C12.2594 10.3361 12.0721 10.5259 11.6566 10.5259C10.5502 10.5259 7.86492 6.5432 6.27358 1.98499C5.95233 1.10064 5.63853 0.743428 4.80379 0.743428H1.54793C0.61893 0.743428 0.431641 1.17134 0.431641 1.65011C0.431641 2.49601 1.53801 6.70196 5.57652 12.2586C8.26802 16.0515 12.0585 18.1068 15.5066 18.1068C17.5792 18.1068 17.8322 17.6503 17.8322 16.8652C17.8322 13.241 17.6449 12.8986 18.683 12.8986C19.1643 12.8986 19.9928 13.1368 21.9277 14.9663C24.1392 17.1356 24.5027 18.1068 25.7405 18.1068H28.9951C29.9229 18.1068 30.393 17.6503 30.1226 16.7498C29.5037 14.8559 25.3213 10.96 25.1327 10.6995Z" fill="#FC6652"/>
</svg>
