<svg width="24" height="23" viewBox="0 0 24 23" fill="none" xmlns="http://www.w3.org/2000/svg">
<path d="M20.0463 3.34001C17.8857 1.18745 15.0114 0.00122833 11.9523 0C8.90005 0 6.02119 1.18517 3.84634 3.3372C1.66763 5.49293 0.466675 8.35775 0.463867 11.3935V11.397V11.3991C0.464218 13.2365 0.946953 15.0901 1.86329 16.782L0.495277 23L6.78487 21.5693C8.37784 22.3721 10.1552 22.7954 11.9479 22.7961H11.9525C15.0042 22.7961 17.883 21.6108 20.0582 19.4585C22.2389 17.3011 23.4404 14.4399 23.4418 11.4023C23.4426 8.386 22.2369 5.52276 20.0463 3.34001ZM11.9523 21.001H11.9482C10.3386 21.0003 8.74371 20.5962 7.33621 19.832L7.03878 19.6705L2.85648 20.6218L3.76492 16.4932L3.5898 16.1912C2.71909 14.6896 2.25899 13.0321 2.25899 11.3972C2.26232 6.10534 6.61027 1.79512 11.9519 1.79512C14.5325 1.79617 16.9572 2.79656 18.7794 4.61169C20.6291 6.45489 21.6473 8.86628 21.6465 11.4017C21.6444 16.6948 17.2955 21.001 11.9523 21.001Z" fill="#FC6652"/>
<path d="M8.82644 6.37207H8.32282C8.14752 6.37207 7.8629 6.4377 7.62215 6.69968C7.38122 6.96185 6.7023 7.59549 6.7023 8.88419C6.7023 10.1729 7.64408 11.4181 7.77534 11.593C7.90677 11.7678 9.59327 14.4968 12.2644 15.5467C14.4843 16.4191 14.9362 16.2456 15.4178 16.2019C15.8997 16.1584 16.9727 15.5684 17.1917 14.9569C17.4107 14.3454 17.4107 13.821 17.3451 13.7115C17.2793 13.6024 17.104 13.5369 16.8413 13.406C16.5784 13.2749 15.2905 12.6306 15.0495 12.543C14.8086 12.4558 14.6335 12.4121 14.4582 12.6745C14.2829 12.9363 13.7668 13.542 13.6134 13.7168C13.4602 13.8917 13.3069 13.9137 13.044 13.7826C12.7811 13.6512 11.9434 13.3697 10.9395 12.4776C10.1581 11.7832 9.61591 10.8978 9.46254 10.6356C9.30935 10.3736 9.44622 10.2318 9.578 10.1011C9.6961 9.98389 9.85561 9.82351 9.98704 9.67067C10.1183 9.51765 10.1557 9.40851 10.2434 9.23373C10.331 9.05896 10.2871 8.90594 10.2215 8.77504C10.1557 8.64396 9.65135 7.34877 9.41762 6.83076H9.41779C9.22091 6.39453 9.01367 6.37979 8.82644 6.37207Z" fill="#FC6652"/>
</svg>
