<svg width="30" height="21" viewBox="0 0 30 21" fill="none" xmlns="http://www.w3.org/2000/svg">
<path d="M28.935 3.81369C28.6012 2.57293 27.623 1.59484 26.3824 1.26074C24.116 0.640625 15.0502 0.640625 15.0502 0.640625C15.0502 0.640625 5.98477 0.640625 3.71836 1.23723C2.50164 1.57098 1.49951 2.5731 1.16577 3.81369C0.569336 6.07992 0.569336 10.7798 0.569336 10.7798C0.569336 10.7798 0.569336 15.5033 1.16577 17.7459C1.49987 18.9864 2.47777 19.9645 3.71854 20.2986C6.00863 20.9189 15.0506 20.9189 15.0506 20.9189C15.0506 20.9189 24.116 20.9189 26.3824 20.3223C27.6232 19.9884 28.6012 19.0103 28.9353 17.7697C29.5316 15.5033 29.5316 10.8036 29.5316 10.8036C29.5316 10.8036 29.5555 6.07992 28.935 3.81369ZM12.1639 15.1217V6.43788L19.7025 10.7798L12.1639 15.1217Z" fill="#FC6652"/>
</svg>
