<svg width="31" height="33" viewBox="0 0 31 33" fill="none" xmlns="http://www.w3.org/2000/svg">
<path fill-rule="evenodd" clip-rule="evenodd" d="M28.0823 22.3439C29.3035 20.1732 30 17.6679 30 15C30 6.71573 23.2843 0 15 0C6.71573 0 0 6.71573 0 15C0 23.2843 6.71573 30 15 30C16.5887 30 18.1198 29.753 19.5568 29.2953L13.1885 22.927C9.57063 22.1037 6.8704 18.8672 6.8704 15C6.8704 10.5101 10.5101 6.8704 15 6.8704C19.4899 6.8704 23.1296 10.5101 23.1296 15C23.1296 15.7311 23.0331 16.4397 22.8521 17.1137L28.0823 22.3439Z" fill="#FC6652"/>
<rect width="19" height="6.16864" rx="3.08432" transform="matrix(-0.707107 -0.707107 -0.707107 0.707107 30.7969 28.4355)" fill="white"/>
</svg>
