<svg width="462" height="277" viewBox="0 0 462 277" fill="none" xmlns="http://www.w3.org/2000/svg">
<path opacity="0.1" d="M115.388 276.58C93.5079 276.58 73.9174 271.237 56.6167 260.551C39.316 249.611 25.7044 233.837 15.782 213.229C5.85955 192.62 0.898322 167.687 0.898322 138.429C0.898322 109.17 5.85955 84.2367 15.782 63.6286C25.7044 43.0204 39.316 27.3735 56.6167 16.6877C73.9174 5.74761 93.5079 0.277541 115.388 0.277541C137.523 0.277541 157.113 5.74761 174.16 16.6877C191.46 27.3735 205.072 43.0204 214.994 63.6286C224.917 84.2367 229.878 109.17 229.878 138.429C229.878 167.687 224.917 192.62 214.994 213.229C205.072 233.837 191.46 249.611 174.16 260.551C157.113 271.237 137.523 276.58 115.388 276.58ZM115.388 224.296C125.819 224.296 134.851 221.37 142.484 215.518C150.371 209.667 156.477 200.38 160.802 187.659C165.382 174.938 167.672 158.528 167.672 138.429C167.672 118.329 165.382 101.919 160.802 89.1979C156.477 76.4769 150.371 67.1905 142.484 61.3388C134.851 55.4871 125.819 52.5612 115.388 52.5612C105.211 52.5612 96.1793 55.4871 88.2922 61.3388C80.6596 67.1905 74.5534 76.4769 69.9738 89.1979C65.6487 101.919 63.4861 118.329 63.4861 138.429C63.4861 158.528 65.6487 174.938 69.9738 187.659C74.5534 200.38 80.6596 209.667 88.2922 215.518C96.1793 221.37 105.211 224.296 115.388 224.296ZM350.745 276.58C332.172 276.58 313.727 274.163 295.408 269.329C277.344 264.24 261.825 257.116 248.849 247.957L273.274 200.635C283.451 208.013 295.154 213.865 308.384 218.19C321.868 222.515 335.48 224.678 349.219 224.678C364.738 224.678 376.951 221.624 385.855 215.518C394.76 209.412 399.212 200.889 399.212 189.949C399.212 183.08 397.432 176.973 393.87 171.631C390.308 166.288 383.947 162.217 374.788 159.418C365.883 156.62 353.289 155.22 337.006 155.22H268.694L282.433 4.85712H445.39V54.4694H304.568L336.625 26.2285L327.084 133.467L295.027 105.227H351.508C377.968 105.227 399.212 108.916 415.241 116.294C431.524 123.418 443.355 133.213 450.733 145.68C458.111 158.146 461.8 172.267 461.8 188.041C461.8 203.815 457.857 218.444 449.97 231.929C442.083 245.159 429.87 255.971 413.333 264.367C397.05 272.509 376.187 276.58 350.745 276.58Z" fill="url(#paint0_linear_401_179)"/>
<defs>
<linearGradient id="paint0_linear_401_179" x1="175.478" y1="-5.09849" x2="222.088" y2="348.061" gradientUnits="userSpaceOnUse">
<stop stop-color="white"/>
<stop offset="1" stop-color="white" stop-opacity="0"/>
</linearGradient>
</defs>
</svg>
