<svg width="80" height="73" viewBox="0 0 80 73" fill="none" xmlns="http://www.w3.org/2000/svg">
<g opacity="0.5">
<circle cx="1.90476" cy="13.3334" r="1.90476" fill="#C5C5C5"/>
<circle cx="11.4286" cy="13.3334" r="1.90476" fill="#C5C5C5"/>
<circle cx="20.9524" cy="13.3334" r="1.90476" fill="#C5C5C5"/>
<circle cx="30.4762" cy="13.3334" r="1.90476" fill="#C5C5C5"/>
<circle cx="59.0476" cy="13.3334" r="1.90476" fill="#C5C5C5"/>
<circle cx="40" cy="13.3334" r="1.90476" fill="#C5C5C5"/>
<circle cx="68.5714" cy="13.3334" r="1.90476" fill="#C5C5C5"/>
<circle cx="49.5238" cy="13.3334" r="1.90476" fill="#C5C5C5"/>
<circle cx="78.0953" cy="13.3334" r="1.90476" fill="#C5C5C5"/>
<circle cx="1.90476" cy="24.7619" r="1.90476" fill="#C5C5C5"/>
<circle cx="11.4286" cy="24.7619" r="1.90476" fill="#C5C5C5"/>
<circle cx="20.9524" cy="24.7619" r="1.90476" fill="#C5C5C5"/>
<circle cx="30.4762" cy="24.7619" r="1.90476" fill="#C5C5C5"/>
<circle cx="59.0476" cy="24.7619" r="1.90476" fill="#C5C5C5"/>
<circle cx="40" cy="24.7619" r="1.90476" fill="#C5C5C5"/>
<circle cx="68.5714" cy="24.7619" r="1.90476" fill="#C5C5C5"/>
<circle cx="49.5238" cy="24.7619" r="1.90476" fill="#C5C5C5"/>
<circle cx="78.0953" cy="24.7619" r="1.90476" fill="#C5C5C5"/>
<circle cx="1.90476" cy="36.1905" r="1.90476" fill="#C5C5C5"/>
<circle cx="11.4286" cy="36.1905" r="1.90476" fill="#C5C5C5"/>
<circle cx="20.9524" cy="36.1905" r="1.90476" fill="#C5C5C5"/>
<circle cx="30.4762" cy="36.1905" r="1.90476" fill="#C5C5C5"/>
<circle cx="59.0476" cy="36.1905" r="1.90476" fill="#C5C5C5"/>
<circle cx="40" cy="36.1905" r="1.90476" fill="#C5C5C5"/>
<circle cx="68.5714" cy="36.1905" r="1.90476" fill="#C5C5C5"/>
<circle cx="49.5238" cy="36.1905" r="1.90476" fill="#C5C5C5"/>
<circle cx="78.0953" cy="36.1905" r="1.90476" fill="#C5C5C5"/>
<circle cx="1.90476" cy="47.619" r="1.90476" fill="#C5C5C5"/>
<circle cx="11.4286" cy="47.619" r="1.90476" fill="#C5C5C5"/>
<circle cx="20.9524" cy="47.619" r="1.90476" fill="#C5C5C5"/>
<circle cx="30.4762" cy="47.619" r="1.90476" fill="#C5C5C5"/>
<circle cx="59.0476" cy="47.619" r="1.90476" fill="#C5C5C5"/>
<circle cx="40" cy="47.619" r="1.90476" fill="#C5C5C5"/>
<circle cx="68.5714" cy="47.619" r="1.90476" fill="#C5C5C5"/>
<circle cx="49.5238" cy="47.619" r="1.90476" fill="#C5C5C5"/>
<circle cx="78.0953" cy="47.619" r="1.90476" fill="#C5C5C5"/>
<circle cx="1.90476" cy="59.0476" r="1.90476" fill="#C5C5C5"/>
<circle cx="11.4286" cy="59.0476" r="1.90476" fill="#C5C5C5"/>
<circle cx="20.9524" cy="59.0476" r="1.90476" fill="#C5C5C5"/>
<circle cx="30.4762" cy="59.0476" r="1.90476" fill="#C5C5C5"/>
<circle cx="59.0476" cy="59.0476" r="1.90476" fill="#C5C5C5"/>
<circle cx="40" cy="59.0476" r="1.90476" fill="#C5C5C5"/>
<circle cx="68.5714" cy="59.0476" r="1.90476" fill="#C5C5C5"/>
<circle cx="49.5238" cy="59.0476" r="1.90476" fill="#C5C5C5"/>
<circle cx="78.0953" cy="59.0476" r="1.90476" fill="#C5C5C5"/>
<circle cx="1.90476" cy="1.90476" r="1.90476" fill="#C5C5C5"/>
<circle cx="11.4286" cy="1.90476" r="1.90476" fill="#C5C5C5"/>
<circle cx="20.9524" cy="1.90476" r="1.90476" fill="#C5C5C5"/>
<circle cx="30.4762" cy="1.90476" r="1.90476" fill="#C5C5C5"/>
<circle cx="59.0476" cy="1.90476" r="1.90476" fill="#C5C5C5"/>
<circle cx="40" cy="1.90476" r="1.90476" fill="#C5C5C5"/>
<circle cx="68.5714" cy="1.90476" r="1.90476" fill="#C5C5C5"/>
<circle cx="49.5238" cy="1.90476" r="1.90476" fill="#C5C5C5"/>
<circle cx="78.0953" cy="1.90476" r="1.90476" fill="#C5C5C5"/>
<circle cx="1.90476" cy="70.4762" r="1.90476" fill="#C5C5C5"/>
<circle cx="11.4286" cy="70.4762" r="1.90476" fill="#C5C5C5"/>
<circle cx="20.9524" cy="70.4762" r="1.90476" fill="#C5C5C5"/>
<circle cx="30.4762" cy="70.4762" r="1.90476" fill="#C5C5C5"/>
<circle cx="59.0476" cy="70.4762" r="1.90476" fill="#C5C5C5"/>
<circle cx="40" cy="70.4762" r="1.90476" fill="#C5C5C5"/>
<circle cx="68.5714" cy="70.4762" r="1.90476" fill="#C5C5C5"/>
<circle cx="49.5238" cy="70.4762" r="1.90476" fill="#C5C5C5"/>
<circle cx="78.0953" cy="70.4762" r="1.90476" fill="#C5C5C5"/>
</g>
</svg>
