<svg width="308" height="236" viewBox="0 0 308 236" fill="none" xmlns="http://www.w3.org/2000/svg">
<path d="M97.7821 235.897C79.1637 235.897 62.4937 231.351 47.7722 222.258C33.0506 212.949 21.4682 199.526 13.025 181.99C4.58173 164.454 0.360111 143.238 0.360111 118.341C0.360111 93.4443 4.58173 72.2279 13.025 54.692C21.4682 37.156 33.0506 23.8417 47.7722 14.7489C62.4937 5.43973 79.1637 0.785123 97.7821 0.785123C116.617 0.785123 133.287 5.43973 147.792 14.7489C162.514 23.8417 174.096 37.156 182.539 54.692C190.983 72.2279 195.204 93.4443 195.204 118.341C195.204 143.238 190.983 164.454 182.539 181.99C174.096 199.526 162.514 212.949 147.792 222.258C133.287 231.351 116.617 235.897 97.7821 235.897ZM97.7821 191.408C106.658 191.408 114.344 188.918 120.839 183.938C127.55 178.959 132.746 171.057 136.426 160.232C140.323 149.408 142.271 135.444 142.271 118.341C142.271 101.238 140.323 87.2742 136.426 76.4495C132.746 65.6249 127.55 57.7229 120.839 52.7435C114.344 47.7642 106.658 45.2745 97.7821 45.2745C89.1224 45.2745 81.4369 47.7642 74.7256 52.7435C68.2308 57.7229 63.0349 65.6249 59.1381 76.4495C55.4577 87.2742 53.6175 101.238 53.6175 118.341C53.6175 135.444 55.4577 149.408 59.1381 160.232C63.0349 171.057 68.2308 178.959 74.7256 183.938C81.4369 188.918 89.1224 191.408 97.7821 191.408ZM254.568 232V24.1664L277.3 46.8982H209.104V4.68199H307.176V232H254.568Z" fill="url(#paint0_linear_401_180)"/>
<defs>
<linearGradient id="paint0_linear_401_180" x1="43.4927" y1="-24.5" x2="91.5088" y2="330.134" gradientUnits="userSpaceOnUse">
<stop stop-color="#FFCFC9"/>
<stop offset="1" stop-color="#FFE4E0" stop-opacity="0"/>
</linearGradient>
</defs>
</svg>
