<svg width="48" height="55" viewBox="0 0 48 55" fill="none" xmlns="http://www.w3.org/2000/svg">
<path d="M44.3571 21.5223L26.2721 3.43733C24.4025 1.56766 21.3601 1.56755 19.4903 3.43733C17.8095 5.11801 17.6648 7.6813 18.906 9.51164L18.8808 9.63753C17.5769 16.1574 14.4026 22.0888 9.70085 26.7905L1.40573 35.0856C-0.468418 36.9598 -0.468738 39.9931 1.40573 41.8674L5.92685 46.3885C7.8009 48.2626 10.8344 48.2627 12.7086 46.3885L13.839 45.2581L21.7511 53.1703C23.6252 55.0445 26.6585 55.0446 28.5328 53.1703C30.4025 51.3006 30.4025 48.2583 28.5328 46.3886L25.1419 42.9977L26.2722 41.8674C28.1463 39.9933 28.1466 36.96 26.2722 35.0857L25.5041 34.3175C29.2828 31.6719 33.5742 29.83 38.157 28.9134L38.2845 28.8879C40.1555 30.1512 42.7129 29.9481 44.3571 28.3039H44.3572C46.2267 26.4343 46.2267 23.3921 44.3571 21.5223ZM10.4481 44.1279C9.82343 44.7525 8.81206 44.7526 8.18741 44.1278L3.66629 39.6067C3.04154 38.9818 3.04154 37.9709 3.66629 37.3461L11.5783 29.434L18.3601 36.2158C17.586 36.9899 11.2412 43.3346 10.4481 44.1279ZM26.2721 48.649C26.8952 49.2722 26.8952 50.2863 26.2721 50.9096C25.6489 51.5327 24.6347 51.5327 24.0115 50.9096L16.0994 42.9975L18.3601 40.7369L26.2721 48.649ZM20.6206 38.4764C21.1012 37.9958 21.8205 37.2598 22.9557 36.2902L24.0115 37.3461C24.6363 37.9709 24.6363 38.9818 24.0115 39.6067L22.8812 40.737L20.6206 38.4764ZM20.6885 34.0232L13.7707 27.1055C17.478 22.8247 20.1329 17.7716 21.5532 12.2819L35.5121 26.2408C30.0224 27.661 24.9694 30.3159 20.6885 34.0232ZM42.0962 26.0432C41.4715 26.6679 40.4604 26.6679 39.8357 26.0432L21.7509 7.95845C21.1261 7.33359 21.1261 6.32264 21.7509 5.69789C22.3756 5.07314 23.3868 5.07314 24.0115 5.69789L42.0962 23.7826C42.7194 24.4058 42.7194 25.4199 42.0962 26.0432Z" fill="#FC6652"/>
<path d="M12.7072 35.0877C12.0831 34.4635 11.0709 34.4635 10.4467 35.0877L8.18609 37.3482C7.56187 37.9725 7.56187 38.9846 8.18609 39.6088C8.8102 40.233 9.82254 40.233 10.4467 39.6088L12.7072 37.3482C13.3314 36.724 13.3314 35.7119 12.7072 35.0877Z" fill="#FC6652"/>
<path d="M33.6127 0C32.7298 0 32.0142 0.715678 32.0142 1.5985V4.79549C32.0142 5.67831 32.7298 6.39399 33.6127 6.39399C34.4955 6.39399 35.2112 5.67831 35.2112 4.79549V1.5985C35.2112 0.715678 34.4955 0 33.6127 0Z" fill="#FC6652"/>
<path d="M46.4026 12.7869H43.2056C42.3228 12.7869 41.6071 13.5025 41.6071 14.3854C41.6071 15.2682 42.3228 15.9839 43.2056 15.9839H46.4026C47.2854 15.9839 48.0011 15.2682 48.0011 14.3854C48.0011 13.5025 47.2853 12.7869 46.4026 12.7869Z" fill="#FC6652"/>
<path d="M44.3374 3.66519C43.7133 3.04097 42.701 3.04097 42.0768 3.66519L38.8798 6.86218C38.2556 7.4864 38.2556 8.49852 38.8798 9.12274C39.5039 9.74696 40.5162 9.74707 41.1404 9.12274L44.3374 5.92575C44.9616 5.30153 44.9616 4.28951 44.3374 3.66519Z" fill="#FC6652"/>
</svg>
