<svg width="59" height="46" viewBox="0 0 59 46" fill="none" xmlns="http://www.w3.org/2000/svg">
<path d="M47.9458 15.9075L36.9354 15.9185C35.1396 15.9185 33.6484 17.3797 33.6484 19.1755V42.1537C33.6484 43.9495 35.1391 45.6329 36.9354 45.6329H36.9506L47.9384 45.5112C49.7342 45.5112 51.1991 43.9942 51.1991 42.1984L51.212 19.2032C51.212 17.4014 49.7481 15.9075 47.9458 15.9075ZM41.4747 17.5157H43.4203C43.9292 17.5157 44.3422 17.9287 44.3422 18.4376C44.3422 18.9464 43.9292 19.3594 43.4203 19.3594H41.4747C40.9658 19.3594 40.5528 18.9464 40.5528 18.4376C40.5528 17.9287 40.9654 17.5157 41.4747 17.5157ZM38.1149 17.6258C38.4606 17.2848 39.0737 17.2848 39.4194 17.6258C39.5899 17.801 39.6867 18.0361 39.6867 18.2804C39.6867 18.5201 39.5899 18.7598 39.4194 18.9303C39.2488 19.1008 39.0087 19.2023 38.7648 19.2023C38.5247 19.2023 38.2855 19.1008 38.1149 18.9303C37.9444 18.7598 37.843 18.5201 37.843 18.2804C37.8434 18.0356 37.9444 17.7959 38.1149 17.6258ZM42.4473 44.5013C41.6844 44.5013 41.0635 43.8804 41.0635 43.118C41.0635 42.3556 41.6844 41.7347 42.4473 41.7347C43.2101 41.7347 43.831 42.3551 43.831 43.118C43.831 43.8808 43.2101 44.5013 42.4473 44.5013ZM49.3203 40.5626C49.3203 40.817 49.1143 41.0235 48.8594 41.0235H35.9531C35.6982 41.0235 35.4922 40.817 35.4922 40.5626V21.2032C35.4922 20.9487 35.6982 20.7422 35.9531 20.7422H48.8594C49.1143 20.7422 49.3203 20.9487 49.3203 21.2032V40.5626Z" fill="url(#paint0_linear_401_210)"/>
<path d="M58.5262 34.1094H55.7734V3.51142C55.7734 1.42891 54.0767 0 51.9947 0H7.00533C4.92235 0 3.22656 1.42891 3.22656 3.51142V34.1094H0.472922C0.218484 34.1094 0 34.0375 0 34.2919V34.7215C0 37.0317 1.89123 39.1797 4.20098 39.1797H34.5703V32.2656H5.99219V4.14844H53.0078V32.2656H50.7031V39.1797H54.7972C57.1083 39.1797 59 37.0317 59 34.7215V34.2919C59 34.0375 58.7806 34.1094 58.5262 34.1094ZM30.1495 2.67252C29.9785 2.84352 29.7434 2.93986 29.4995 2.93986C29.2557 2.93986 29.0197 2.84352 28.8496 2.67252C28.674 2.49782 28.5777 2.26228 28.5777 2.01798C28.5777 1.77369 28.674 1.53861 28.8496 1.36806C29.1907 1.02236 29.8084 1.02236 30.1495 1.36806C30.3242 1.53861 30.4214 1.7783 30.4214 2.01798C30.4214 2.26228 30.3242 2.49736 30.1495 2.67252Z" fill="url(#paint1_linear_401_210)"/>
<defs>
<linearGradient id="paint0_linear_401_210" x1="42.4302" y1="15.9075" x2="42.4302" y2="45.6329" gradientUnits="userSpaceOnUse">
<stop stop-color="#D7412D"/>
<stop offset="1" stop-color="#FE6651"/>
</linearGradient>
<linearGradient id="paint1_linear_401_210" x1="29.5" y1="0" x2="29.5" y2="39.1797" gradientUnits="userSpaceOnUse">
<stop stop-color="#D7412D"/>
<stop offset="1" stop-color="#FE6651"/>
</linearGradient>
</defs>
</svg>
