<svg width="340" height="208" viewBox="0 0 340 208" fill="none" xmlns="http://www.w3.org/2000/svg">
<path d="M85.9917 207.433C69.588 207.433 54.901 203.428 41.9306 195.417C28.9602 187.215 18.7556 175.389 11.3167 159.939C3.87779 144.489 0.158342 125.796 0.158342 103.861C0.158342 81.9258 3.87779 63.2332 11.3167 47.7832C18.7556 32.3332 28.9602 20.6026 41.9306 12.5915C54.901 4.38966 69.588 0.288731 85.9917 0.288731C102.586 0.288731 117.273 4.38966 130.053 12.5915C143.023 20.6026 153.228 32.3332 160.667 47.7832C168.106 63.2332 171.825 81.9258 171.825 103.861C171.825 125.796 168.106 144.489 160.667 159.939C153.228 175.389 143.023 187.215 130.053 195.417C117.273 203.428 102.586 207.433 85.9917 207.433ZM85.9917 168.236C93.8121 168.236 100.583 166.043 106.306 161.656C112.219 157.268 116.796 150.306 120.039 140.769C123.472 131.232 125.189 118.93 125.189 103.861C125.189 88.7925 123.472 76.4897 120.039 66.9527C116.796 57.4156 112.219 50.4536 106.306 46.0665C100.583 41.6795 93.8121 39.486 85.9917 39.486C78.3621 39.486 71.5908 41.6795 65.6778 46.0665C59.9556 50.4536 55.3778 57.4156 51.9445 66.9527C48.7019 76.4897 47.0806 88.7925 47.0806 103.861C47.0806 118.93 48.7019 131.232 51.9445 140.769C55.3778 150.306 59.9556 157.268 65.6778 161.656C71.5908 166.043 78.3621 168.236 85.9917 168.236ZM256.498 207.433C242.574 207.433 228.746 205.621 215.012 201.997C201.279 198.182 189.644 192.842 180.107 185.975L198.132 150.497C205.761 156.029 214.631 160.416 224.74 163.658C234.849 166.901 245.054 168.522 255.354 168.522C266.989 168.522 276.145 166.233 282.821 161.656C289.497 157.078 292.835 150.783 292.835 142.772C292.835 135.143 289.878 129.134 283.965 124.747C278.052 120.36 268.515 118.167 255.354 118.167H234.182V87.5527L289.973 24.3221L295.123 40.9165H190.121V3.72206H330.315V33.7638L274.81 96.9944L251.348 83.5471H264.796C289.401 83.5471 307.998 89.0786 320.587 100.142C333.176 111.205 339.471 125.415 339.471 142.772C339.471 154.026 336.514 164.612 330.601 174.531C324.688 184.258 315.628 192.174 303.421 198.278C291.213 204.381 275.573 207.433 256.498 207.433Z" fill="url(#paint0_linear_401_429)"/>
<defs>
<linearGradient id="paint0_linear_401_429" x1="133.312" y1="-88.5859" x2="204.516" y2="281.97" gradientUnits="userSpaceOnUse">
<stop stop-color="#FFCFC9"/>
<stop offset="1" stop-color="#FFE4E0" stop-opacity="0"/>
</linearGradient>
</defs>
</svg>
