<svg width="33" height="34" viewBox="0 0 33 34" fill="none" xmlns="http://www.w3.org/2000/svg">
<path d="M32.0002 17.48C32.2402 8.31997 24.8802 0.879967 15.7602 0.999967C7.00018 1.11997 -0.0798169 8.35997 0.000183068 17.12C0.0401831 23.4 3.72018 28.8 9.00018 31.4C9.32018 31.56 9.68018 31.32 9.64018 30.96C9.60018 29.92 9.64018 28.84 9.84018 27.96C10.0402 27.08 10.8402 23.72 11.3602 21.52C11.6002 20.44 11.6402 19.32 11.4402 18.24C11.3602 17.88 11.3202 17.48 11.3202 17C11.3202 14.64 12.6802 12.88 14.4002 12.88C15.8402 12.88 16.5602 13.96 16.5602 15.28C16.5602 16.72 15.6402 18.92 15.1602 20.96C14.7602 22.64 16.0002 24.04 17.6802 24.04C20.7202 24.04 23.0402 20.84 23.0402 16.24C23.0402 12.16 20.1202 9.31997 15.9202 9.31997C11.0802 9.31997 8.24018 12.96 8.24018 16.72C8.24018 18.2 8.80018 19.76 9.52018 20.6C9.64018 20.76 9.68018 20.92 9.64018 21.08C9.52018 21.6 9.24018 22.76 9.16018 23C9.08018 23.32 8.92018 23.36 8.60018 23.24C6.48018 22.2 5.12018 19.08 5.12018 16.6C5.12018 11.24 9.00018 6.31997 16.3602 6.31997C22.2402 6.31997 26.8402 10.52 26.8402 16.16C26.8402 22.04 23.1602 26.72 18.0002 26.72C16.6402 26.72 15.3602 26.16 14.6002 25.4C14.3602 25.16 13.9602 25.28 13.8802 25.6C13.6002 26.6 13.2002 28.28 13.0402 28.8C12.8002 29.76 12.2802 30.88 11.7202 31.88C11.5602 32.12 11.7202 32.48 12.0002 32.52C13.3202 32.84 14.6802 33.04 16.0802 33C24.5602 32.92 31.7602 25.88 32.0002 17.48Z" fill="white"/>
</svg>
