<svg width="26" height="22" viewBox="0 0 26 22" fill="none" xmlns="http://www.w3.org/2000/svg">
<path d="M25.768 3.0641C24.808 3.4801 23.816 3.7681 22.76 3.8961C23.848 3.2561 24.68 2.2321 25.064 0.984098C24.04 1.5921 22.92 2.0081 21.736 2.2641C20.776 1.2401 19.4 0.600098 17.896 0.600098C14.984 0.600098 12.648 2.9681 12.648 5.8481C12.648 6.2641 12.68 6.6481 12.776 7.0321C8.42397 6.8401 4.58397 4.7281 1.99197 1.5601C0.135969 4.8881 2.21597 7.6401 3.59197 8.5681C2.75997 8.5681 1.92797 8.3121 1.22397 7.9281C1.22397 10.5201 3.04797 12.6641 5.41597 13.1441C4.90397 13.3041 3.75197 13.4001 3.04797 13.2401C3.71997 15.3201 5.67197 16.8561 7.94397 16.8881C6.15197 18.2961 3.52797 19.4161 0.167969 19.0641C2.50397 20.5681 5.25597 21.4321 8.23197 21.4321C17.896 21.4321 23.144 13.4321 23.144 6.5201C23.144 6.2961 23.144 6.0721 23.112 5.8481C24.2 5.0481 25.096 4.1201 25.768 3.0641Z" fill="white"/>
</svg>
