<svg width="429" height="383" viewBox="0 0 429 383" fill="none" xmlns="http://www.w3.org/2000/svg">
<mask id="mask0_1038_3" style="mask-type:alpha" maskUnits="userSpaceOnUse" x="0" y="0" width="429" height="383">
<rect width="429" height="383" rx="20" fill="#FC6652"/>
</mask>
<g mask="url(#mask0_1038_3)">
<rect width="429" height="383" rx="20" fill="#FC6652"/>
<ellipse cx="-76.5" cy="286.5" rx="167.5" ry="72.5" fill="#F0897B"/>
<ellipse cx="467.5" cy="92.5" rx="167.5" ry="72.5" fill="#F0897B"/>
<path d="M111.5 285C111.5 295.879 106.417 306.283 97.1432 315.79C87.8666 325.3 74.4189 333.887 57.7623 341.11C24.4508 355.554 -21.6035 364.5 -72.5 364.5C-123.396 364.5 -169.451 355.554 -202.762 341.11C-219.419 333.887 -232.867 325.3 -242.143 315.79C-251.417 306.283 -256.5 295.879 -256.5 285C-256.5 274.121 -251.417 263.717 -242.143 254.21C-232.867 244.7 -219.419 236.113 -202.762 228.89C-169.451 214.446 -123.396 205.5 -72.5 205.5C-21.6035 205.5 24.4508 214.446 57.7623 228.89C74.4189 236.113 87.8666 244.7 97.1432 254.21C106.417 263.717 111.5 274.121 111.5 285Z" stroke="#F0897B"/>
<path d="M655.5 91C655.5 101.879 650.417 112.283 641.143 121.79C631.867 131.3 618.419 139.887 601.762 147.11C568.451 161.554 522.396 170.5 471.5 170.5C420.604 170.5 374.549 161.554 341.238 147.11C324.581 139.887 311.133 131.3 301.857 121.79C292.583 112.283 287.5 101.879 287.5 91C287.5 80.1213 292.583 69.7171 301.857 60.2095C311.133 50.6996 324.581 42.1125 341.238 34.8902C374.549 20.4462 420.604 11.5 471.5 11.5C522.396 11.5 568.451 20.4462 601.762 34.8902C618.419 42.1125 631.867 50.6996 641.143 60.2095C650.417 69.7171 655.5 80.1213 655.5 91Z" stroke="#F0897B"/>
</g>
<circle cx="214.5" cy="229.5" r="98.5" stroke="#8A2F23" stroke-width="5"/>
<path d="M214.5 131C237.156 131 259.119 138.81 276.688 153.114C294.258 167.417 306.359 187.34 310.953 209.525C315.548 231.71 312.354 254.801 301.91 274.906C291.467 295.011 274.411 310.901 253.619 319.899C232.827 328.896 209.568 330.452 187.763 324.302C165.958 318.152 146.939 304.674 133.912 286.138C120.885 267.602 114.646 245.142 116.246 222.543C117.846 199.944 127.188 178.587 142.697 162.072" stroke="white" stroke-width="8" stroke-linecap="round" stroke-linejoin="round"/>
<path d="M106.845 49.288C105.549 49.288 104.341 49.08 103.221 48.664C102.117 48.232 101.157 47.624 100.34 46.84C99.5245 46.056 98.8845 45.136 98.4205 44.08C97.9725 43.024 97.7485 41.864 97.7485 40.6C97.7485 39.336 97.9725 38.176 98.4205 37.12C98.8845 36.064 99.5245 35.144 100.34 34.36C101.173 33.576 102.141 32.976 103.245 32.56C104.349 32.128 105.557 31.912 106.869 31.912C108.325 31.912 109.637 32.168 110.805 32.68C111.989 33.176 112.981 33.912 113.781 34.888L111.285 37.192C110.709 36.536 110.069 36.048 109.365 35.728C108.661 35.392 107.893 35.224 107.061 35.224C106.277 35.224 105.557 35.352 104.901 35.608C104.245 35.864 103.677 36.232 103.197 36.712C102.717 37.192 102.341 37.76 102.069 38.416C101.813 39.072 101.685 39.8 101.685 40.6C101.685 41.4 101.813 42.128 102.069 42.784C102.341 43.44 102.717 44.008 103.197 44.488C103.677 44.968 104.245 45.336 104.901 45.592C105.557 45.848 106.277 45.976 107.061 45.976C107.893 45.976 108.661 45.816 109.365 45.496C110.069 45.16 110.709 44.656 111.285 43.984L113.781 46.288C112.981 47.264 111.989 48.008 110.805 48.52C109.637 49.032 108.317 49.288 106.845 49.288ZM123.635 49.192C122.547 49.192 121.595 48.952 120.779 48.472C119.963 47.992 119.323 47.264 118.859 46.288C118.411 45.296 118.187 44.048 118.187 42.544C118.187 41.024 118.403 39.776 118.835 38.8C119.267 37.824 119.891 37.096 120.707 36.616C121.523 36.136 122.499 35.896 123.635 35.896C124.851 35.896 125.939 36.176 126.899 36.736C127.875 37.28 128.643 38.048 129.203 39.04C129.779 40.032 130.067 41.2 130.067 42.544C130.067 43.904 129.779 45.08 129.203 46.072C128.643 47.064 127.875 47.832 126.899 48.376C125.939 48.92 124.851 49.192 123.635 49.192ZM116.003 53.656V36.088H119.579V38.728L119.507 42.568L119.747 46.384V53.656H116.003ZM122.987 46.12C123.611 46.12 124.163 45.976 124.643 45.688C125.139 45.4 125.531 44.992 125.819 44.464C126.123 43.92 126.275 43.28 126.275 42.544C126.275 41.792 126.123 41.152 125.819 40.624C125.531 40.096 125.139 39.688 124.643 39.4C124.163 39.112 123.611 38.968 122.987 38.968C122.363 38.968 121.803 39.112 121.307 39.4C120.811 39.688 120.419 40.096 120.131 40.624C119.843 41.152 119.699 41.792 119.699 42.544C119.699 43.28 119.843 43.92 120.131 44.464C120.419 44.992 120.811 45.4 121.307 45.688C121.803 45.976 122.363 46.12 122.987 46.12ZM139.003 49.192C137.531 49.192 136.235 48.904 135.115 48.328C134.011 47.752 133.155 46.968 132.547 45.976C131.939 44.968 131.635 43.824 131.635 42.544C131.635 41.248 131.931 40.104 132.523 39.112C133.131 38.104 133.955 37.32 134.995 36.76C136.035 36.184 137.211 35.896 138.523 35.896C139.787 35.896 140.923 36.168 141.931 36.712C142.955 37.24 143.763 38.008 144.355 39.016C144.947 40.008 145.243 41.2 145.243 42.592C145.243 42.736 145.235 42.904 145.219 43.096C145.203 43.272 145.187 43.44 145.171 43.6H134.683V41.416H143.203L141.763 42.064C141.763 41.392 141.627 40.808 141.355 40.312C141.083 39.816 140.707 39.432 140.227 39.16C139.747 38.872 139.187 38.728 138.547 38.728C137.907 38.728 137.339 38.872 136.843 39.16C136.363 39.432 135.987 39.824 135.715 40.336C135.443 40.832 135.307 41.424 135.307 42.112V42.688C135.307 43.392 135.459 44.016 135.763 44.56C136.083 45.088 136.523 45.496 137.083 45.784C137.659 46.056 138.331 46.192 139.099 46.192C139.787 46.192 140.387 46.088 140.899 45.88C141.427 45.672 141.907 45.36 142.339 44.944L144.331 47.104C143.739 47.776 142.995 48.296 142.099 48.664C141.203 49.016 140.171 49.192 139.003 49.192ZM156.875 47.32V39.16H152.651L152.579 40.816C152.547 41.504 152.507 42.16 152.459 42.784C152.411 43.408 152.315 43.976 152.171 44.488C152.043 44.984 151.851 45.408 151.595 45.76C151.339 46.096 150.995 46.328 150.563 46.456L146.867 45.928C147.331 45.928 147.707 45.792 147.995 45.52C148.283 45.232 148.507 44.84 148.667 44.344C148.827 43.832 148.947 43.256 149.027 42.616C149.107 41.96 149.163 41.272 149.195 40.552L149.363 36.088H160.619V47.32H156.875ZM146.435 51.784V45.928H162.467V51.784H158.987V49H149.915V51.784H146.435ZM164.823 49V36.088H168.543V41.128H174.159V36.088H177.903V49H174.159V44.176H168.543V49H164.823ZM181.488 49V36.088H185.208V43.768L191.496 36.088H194.928V49H191.208V41.32L184.944 49H181.488ZM198.527 49V36.088H202.247V43.768L208.535 36.088H211.967V49H208.247V41.32L201.983 49H198.527ZM205.007 34.696C203.599 34.696 202.543 34.392 201.839 33.784C201.135 33.16 200.775 32.224 200.759 30.976H203.207C203.223 31.52 203.375 31.952 203.663 32.272C203.951 32.592 204.391 32.752 204.983 32.752C205.559 32.752 205.999 32.592 206.303 32.272C206.623 31.952 206.783 31.52 206.783 30.976H209.279C209.279 32.224 208.919 33.16 208.199 33.784C207.479 34.392 206.415 34.696 205.007 34.696ZM222.363 49V36.088H235.203V49H231.459V38.32L232.299 39.16H225.243L226.083 38.32V49H222.363ZM246.4 49.192C245.312 49.192 244.36 48.952 243.544 48.472C242.728 47.992 242.088 47.264 241.624 46.288C241.176 45.296 240.952 44.048 240.952 42.544C240.952 41.024 241.168 39.776 241.6 38.8C242.032 37.824 242.656 37.096 243.472 36.616C244.288 36.136 245.264 35.896 246.4 35.896C247.616 35.896 248.704 36.176 249.664 36.736C250.64 37.28 251.408 38.048 251.968 39.04C252.544 40.032 252.832 41.2 252.832 42.544C252.832 43.904 252.544 45.08 251.968 46.072C251.408 47.064 250.64 47.832 249.664 48.376C248.704 48.92 247.616 49.192 246.4 49.192ZM238.768 53.656V36.088H242.344V38.728L242.272 42.568L242.512 46.384V53.656H238.768ZM245.752 46.12C246.376 46.12 246.928 45.976 247.408 45.688C247.904 45.4 248.296 44.992 248.584 44.464C248.888 43.92 249.04 43.28 249.04 42.544C249.04 41.792 248.888 41.152 248.584 40.624C248.296 40.096 247.904 39.688 247.408 39.4C246.928 39.112 246.376 38.968 245.752 38.968C245.128 38.968 244.568 39.112 244.072 39.4C243.576 39.688 243.184 40.096 242.896 40.624C242.608 41.152 242.464 41.792 242.464 42.544C242.464 43.28 242.608 43.92 242.896 44.464C243.184 44.992 243.576 45.4 244.072 45.688C244.568 45.976 245.128 46.12 245.752 46.12ZM261.504 49.192C260.128 49.192 258.904 48.904 257.832 48.328C256.776 47.752 255.936 46.968 255.312 45.976C254.704 44.968 254.4 43.824 254.4 42.544C254.4 41.248 254.704 40.104 255.312 39.112C255.936 38.104 256.776 37.32 257.832 36.76C258.904 36.184 260.128 35.896 261.504 35.896C262.864 35.896 264.08 36.184 265.152 36.76C266.224 37.32 267.064 38.096 267.672 39.088C268.28 40.08 268.584 41.232 268.584 42.544C268.584 43.824 268.28 44.968 267.672 45.976C267.064 46.968 266.224 47.752 265.152 48.328C264.08 48.904 262.864 49.192 261.504 49.192ZM261.504 46.12C262.128 46.12 262.688 45.976 263.184 45.688C263.68 45.4 264.072 44.992 264.36 44.464C264.648 43.92 264.792 43.28 264.792 42.544C264.792 41.792 264.648 41.152 264.36 40.624C264.072 40.096 263.68 39.688 263.184 39.4C262.688 39.112 262.128 38.968 261.504 38.968C260.88 38.968 260.32 39.112 259.824 39.4C259.328 39.688 258.928 40.096 258.624 40.624C258.336 41.152 258.192 41.792 258.192 42.544C258.192 43.28 258.336 43.92 258.624 44.464C258.928 44.992 259.328 45.4 259.824 45.688C260.32 45.976 260.88 46.12 261.504 46.12ZM271.159 49V36.088H274.879V45.928H280.087V36.088H283.831V49H271.159ZM282.223 51.784V48.952L283.087 49H280.087V45.928H285.703V51.784H282.223ZM294.37 49.192C292.898 49.192 291.602 48.904 290.482 48.328C289.378 47.752 288.522 46.968 287.914 45.976C287.306 44.968 287.002 43.824 287.002 42.544C287.002 41.248 287.298 40.104 287.89 39.112C288.498 38.104 289.322 37.32 290.362 36.76C291.402 36.184 292.578 35.896 293.89 35.896C295.154 35.896 296.29 36.168 297.298 36.712C298.322 37.24 299.13 38.008 299.722 39.016C300.314 40.008 300.61 41.2 300.61 42.592C300.61 42.736 300.602 42.904 300.586 43.096C300.57 43.272 300.554 43.44 300.538 43.6H290.05V41.416H298.57L297.13 42.064C297.13 41.392 296.994 40.808 296.722 40.312C296.45 39.816 296.074 39.432 295.594 39.16C295.114 38.872 294.554 38.728 293.914 38.728C293.274 38.728 292.706 38.872 292.21 39.16C291.73 39.432 291.354 39.824 291.082 40.336C290.81 40.832 290.674 41.424 290.674 42.112V42.688C290.674 43.392 290.826 44.016 291.13 44.56C291.45 45.088 291.89 45.496 292.45 45.784C293.026 46.056 293.698 46.192 294.466 46.192C295.154 46.192 295.754 46.088 296.266 45.88C296.794 45.672 297.274 45.36 297.706 44.944L299.698 47.104C299.106 47.776 298.362 48.296 297.466 48.664C296.57 49.016 295.538 49.192 294.37 49.192ZM303.48 49V36.088H307.2V41.128H312.816V36.088H316.56V49H312.816V44.176H307.2V49H303.48ZM322.904 49V38.296L323.744 39.16H318.536V36.088H330.992V39.16H325.784L326.624 38.296V49H322.904ZM168.852 79.32V71.16H164.628L164.556 72.816C164.524 73.504 164.484 74.16 164.436 74.784C164.388 75.408 164.292 75.976 164.148 76.488C164.02 76.984 163.828 77.408 163.572 77.76C163.316 78.096 162.972 78.328 162.54 78.456L158.844 77.928C159.308 77.928 159.684 77.792 159.972 77.52C160.26 77.232 160.484 76.84 160.644 76.344C160.804 75.832 160.924 75.256 161.004 74.616C161.084 73.96 161.14 73.272 161.172 72.552L161.34 68.088H172.596V79.32H168.852ZM158.412 83.784V77.928H174.444V83.784H170.964V81H161.892V83.784H158.412ZM182.848 81.192C181.472 81.192 180.248 80.904 179.176 80.328C178.12 79.752 177.28 78.968 176.656 77.976C176.048 76.968 175.744 75.824 175.744 74.544C175.744 73.248 176.048 72.104 176.656 71.112C177.28 70.104 178.12 69.32 179.176 68.76C180.248 68.184 181.472 67.896 182.848 67.896C184.208 67.896 185.424 68.184 186.496 68.76C187.568 69.32 188.408 70.096 189.016 71.088C189.624 72.08 189.928 73.232 189.928 74.544C189.928 75.824 189.624 76.968 189.016 77.976C188.408 78.968 187.568 79.752 186.496 80.328C185.424 80.904 184.208 81.192 182.848 81.192ZM182.848 78.12C183.472 78.12 184.032 77.976 184.528 77.688C185.024 77.4 185.416 76.992 185.704 76.464C185.992 75.92 186.136 75.28 186.136 74.544C186.136 73.792 185.992 73.152 185.704 72.624C185.416 72.096 185.024 71.688 184.528 71.4C184.032 71.112 183.472 70.968 182.848 70.968C182.224 70.968 181.664 71.112 181.168 71.4C180.672 71.688 180.272 72.096 179.968 72.624C179.68 73.152 179.536 73.792 179.536 74.544C179.536 75.28 179.68 75.92 179.968 76.464C180.272 76.992 180.672 77.4 181.168 77.688C181.664 77.976 182.224 78.12 182.848 78.12ZM192.503 81V68.088H199.103C200.719 68.088 201.983 68.384 202.895 68.976C203.807 69.552 204.263 70.368 204.263 71.424C204.263 72.48 203.831 73.312 202.967 73.92C202.119 74.512 200.991 74.808 199.583 74.808L199.967 73.944C201.535 73.944 202.703 74.232 203.471 74.808C204.255 75.384 204.647 76.224 204.647 77.328C204.647 78.464 204.215 79.36 203.351 80.016C202.487 80.672 201.167 81 199.391 81H192.503ZM195.935 78.456H199.079C199.767 78.456 200.279 78.344 200.615 78.12C200.967 77.88 201.143 77.52 201.143 77.04C201.143 76.544 200.983 76.184 200.663 75.96C200.343 75.72 199.839 75.6 199.151 75.6H195.935V78.456ZM195.935 73.392H198.767C199.423 73.392 199.911 73.272 200.231 73.032C200.567 72.792 200.735 72.448 200.735 72C200.735 71.536 200.567 71.192 200.231 70.968C199.911 70.744 199.423 70.632 198.767 70.632H195.935V73.392ZM213.745 81.192C212.273 81.192 210.977 80.904 209.857 80.328C208.753 79.752 207.897 78.968 207.289 77.976C206.681 76.968 206.377 75.824 206.377 74.544C206.377 73.248 206.673 72.104 207.265 71.112C207.873 70.104 208.697 69.32 209.737 68.76C210.777 68.184 211.953 67.896 213.265 67.896C214.529 67.896 215.665 68.168 216.673 68.712C217.697 69.24 218.505 70.008 219.097 71.016C219.689 72.008 219.985 73.2 219.985 74.592C219.985 74.736 219.977 74.904 219.961 75.096C219.945 75.272 219.929 75.44 219.913 75.6H209.425V73.416H217.945L216.505 74.064C216.505 73.392 216.369 72.808 216.097 72.312C215.825 71.816 215.449 71.432 214.969 71.16C214.489 70.872 213.929 70.728 213.289 70.728C212.649 70.728 212.081 70.872 211.585 71.16C211.105 71.432 210.729 71.824 210.457 72.336C210.185 72.832 210.049 73.424 210.049 74.112V74.688C210.049 75.392 210.201 76.016 210.505 76.56C210.825 77.088 211.265 77.496 211.825 77.784C212.401 78.056 213.073 78.192 213.841 78.192C214.529 78.192 215.129 78.088 215.641 77.88C216.169 77.672 216.649 77.36 217.081 76.944L219.073 79.104C218.481 79.776 217.737 80.296 216.841 80.664C215.945 81.016 214.913 81.192 213.745 81.192ZM230.463 81.192C229.375 81.192 228.423 80.952 227.607 80.472C226.791 79.992 226.151 79.264 225.687 78.288C225.239 77.296 225.015 76.048 225.015 74.544C225.015 73.024 225.231 71.776 225.663 70.8C226.095 69.824 226.719 69.096 227.535 68.616C228.351 68.136 229.327 67.896 230.463 67.896C231.679 67.896 232.767 68.176 233.727 68.736C234.703 69.28 235.471 70.048 236.031 71.04C236.607 72.032 236.895 73.2 236.895 74.544C236.895 75.904 236.607 77.08 236.031 78.072C235.471 79.064 234.703 79.832 233.727 80.376C232.767 80.92 231.679 81.192 230.463 81.192ZM222.831 85.656V68.088H226.407V70.728L226.335 74.568L226.575 78.384V85.656H222.831ZM229.815 78.12C230.439 78.12 230.991 77.976 231.471 77.688C231.967 77.4 232.359 76.992 232.647 76.464C232.951 75.92 233.103 75.28 233.103 74.544C233.103 73.792 232.951 73.152 232.647 72.624C232.359 72.096 231.967 71.688 231.471 71.4C230.991 71.112 230.439 70.968 229.815 70.968C229.191 70.968 228.631 71.112 228.135 71.4C227.639 71.688 227.247 72.096 226.959 72.624C226.671 73.152 226.527 73.792 226.527 74.544C226.527 75.28 226.671 75.92 226.959 76.464C227.247 76.992 227.639 77.4 228.135 77.688C228.631 77.976 229.191 78.12 229.815 78.12ZM239.519 81V68.088H243.239V75.768L249.527 68.088H252.959V81H249.239V73.32L242.975 81H239.519ZM264.694 81V76.704L265.222 77.304H261.646C259.79 77.304 258.334 76.92 257.278 76.152C256.222 75.384 255.694 74.28 255.694 72.84C255.694 71.304 256.246 70.128 257.35 69.312C258.47 68.496 259.974 68.088 261.862 68.088H268.03V81H264.694ZM255.502 81L258.934 76.08H262.75L259.486 81H255.502ZM264.694 75.552V70.176L265.222 71.136H261.934C261.166 71.136 260.566 71.28 260.134 71.568C259.718 71.856 259.51 72.32 259.51 72.96C259.51 74.192 260.302 74.808 261.886 74.808H265.222L264.694 75.552Z" fill="white"/>
<path d="M204.229 217.56C207.002 218.947 209.109 220.76 210.549 223C212.042 225.24 212.789 227.827 212.789 230.76C212.789 234.227 211.802 237.267 209.829 239.88C207.856 242.44 205.082 244.44 201.509 245.88C197.936 247.267 193.802 247.96 189.109 247.96C184.416 247.96 180.282 247.267 176.709 245.88C173.189 244.44 170.442 242.44 168.469 239.88C166.549 237.267 165.589 234.227 165.589 230.76C165.589 227.827 166.309 225.24 167.749 223C169.242 220.76 171.349 218.947 174.069 217.56C171.989 216.28 170.389 214.68 169.269 212.76C168.149 210.787 167.589 208.547 167.589 206.04C167.589 202.787 168.496 199.96 170.309 197.56C172.122 195.16 174.656 193.32 177.909 192.04C181.162 190.707 184.896 190.04 189.109 190.04C193.376 190.04 197.136 190.707 200.389 192.04C203.696 193.32 206.256 195.16 208.069 197.56C209.882 199.96 210.789 202.787 210.789 206.04C210.789 208.547 210.229 210.787 209.109 212.76C207.989 214.68 206.362 216.28 204.229 217.56ZM189.109 199.56C186.496 199.56 184.389 200.2 182.789 201.48C181.242 202.707 180.469 204.413 180.469 206.6C180.469 208.733 181.242 210.413 182.789 211.64C184.336 212.867 186.442 213.48 189.109 213.48C191.776 213.48 193.909 212.867 195.509 211.64C197.109 210.413 197.909 208.733 197.909 206.6C197.909 204.413 197.109 202.707 195.509 201.48C193.909 200.2 191.776 199.56 189.109 199.56ZM189.109 238.44C192.362 238.44 194.922 237.72 196.789 236.28C198.709 234.787 199.669 232.813 199.669 230.36C199.669 227.907 198.709 225.96 196.789 224.52C194.922 223.08 192.362 222.36 189.109 222.36C185.909 222.36 183.376 223.08 181.509 224.52C179.642 225.96 178.709 227.907 178.709 230.36C178.709 232.867 179.642 234.84 181.509 236.28C183.376 237.72 185.909 238.44 189.109 238.44ZM262.562 191V199.4L241.762 247H227.682L247.762 201.56H229.202V210.68H217.682V191H262.562Z" fill="#8A2F22"/>
<path d="M206.876 272.34C205.336 272.34 204.076 271.82 203.096 270.78C202.136 269.72 201.656 268.31 201.656 266.55C201.656 264.79 202.136 263.39 203.096 262.35C204.076 261.29 205.336 260.76 206.876 260.76C208.416 260.76 209.666 261.29 210.626 262.35C211.586 263.39 212.066 264.79 212.066 266.55C212.066 268.31 211.586 269.72 210.626 270.78C209.666 271.82 208.416 272.34 206.876 272.34ZM219.386 261H222.956L208.616 282H205.046L219.386 261ZM206.876 269.88C207.556 269.88 208.086 269.6 208.466 269.04C208.866 268.48 209.066 267.65 209.066 266.55C209.066 265.45 208.866 264.62 208.466 264.06C208.086 263.5 207.556 263.22 206.876 263.22C206.216 263.22 205.686 263.51 205.286 264.09C204.886 264.65 204.686 265.47 204.686 266.55C204.686 267.63 204.886 268.46 205.286 269.04C205.686 269.6 206.216 269.88 206.876 269.88ZM221.126 282.24C220.126 282.24 219.226 282.01 218.426 281.55C217.646 281.07 217.036 280.39 216.596 279.51C216.156 278.63 215.936 277.61 215.936 276.45C215.936 275.29 216.156 274.27 216.596 273.39C217.036 272.51 217.646 271.84 218.426 271.38C219.226 270.9 220.126 270.66 221.126 270.66C222.666 270.66 223.916 271.19 224.876 272.25C225.856 273.29 226.346 274.69 226.346 276.45C226.346 278.21 225.856 279.62 224.876 280.68C223.916 281.72 222.666 282.24 221.126 282.24ZM221.126 279.78C221.806 279.78 222.336 279.5 222.716 278.94C223.116 278.36 223.316 277.53 223.316 276.45C223.316 275.37 223.116 274.55 222.716 273.99C222.336 273.41 221.806 273.12 221.126 273.12C220.466 273.12 219.936 273.4 219.536 273.96C219.136 274.52 218.936 275.35 218.936 276.45C218.936 277.55 219.136 278.38 219.536 278.94C219.936 279.5 220.466 279.78 221.126 279.78Z" fill="#9D3F31"/>
</svg>
