<svg width="100" height="100" viewBox="0 0 100 100" fill="none" xmlns="http://www.w3.org/2000/svg">
<rect x="0.5" y="0.5" width="99" height="99" rx="19.5" stroke="#DCDCDC"/>
<path fill-rule="evenodd" clip-rule="evenodd" d="M35.1874 19H62.351C64.6636 19 66.5384 20.9801 66.5384 23.4227V74.9706C66.5384 77.4132 64.6636 79.3933 62.351 79.3933H35.1874C32.8748 79.3933 31 77.4132 31 74.9706V23.4227C31 20.9801 32.8748 19 35.1874 19ZM64.2303 74.3264V24.0673C64.2303 23.3803 63.9719 22.7215 63.5119 22.2357C63.052 21.75 62.4282 21.4771 61.7778 21.4771H56.5004C56.299 21.4771 56.1018 21.5373 55.9315 21.6509C55.7612 21.7644 55.6248 21.9265 55.5381 22.1185L54.8059 23.7389C54.7193 23.9309 54.5829 24.093 54.4126 24.2065C54.2423 24.3201 54.045 24.3803 53.8436 24.3803H43.6843C43.4829 24.3803 43.2857 24.3201 43.1154 24.2065C42.9451 24.093 42.8087 23.9309 42.722 23.7389L41.9898 22.1185C41.9032 21.9265 41.7668 21.7644 41.5965 21.6509C41.4262 21.5373 41.2289 21.4771 41.0275 21.4771H35.7613C35.4393 21.4771 35.1204 21.5441 34.8228 21.6742C34.5253 21.8044 34.2549 21.9952 34.0272 22.2357C33.7994 22.4763 33.6188 22.7618 33.4955 23.0761C33.3723 23.3903 33.3089 23.7272 33.3089 24.0673V74.3264C33.3073 74.6659 33.3693 75.0025 33.4912 75.3167C33.6132 75.6309 33.7927 75.9165 34.0195 76.1572C34.2463 76.3979 34.5159 76.5889 34.8127 76.7192C35.1096 76.8496 35.428 76.9166 35.7495 76.9166H61.7778C62.1001 76.9175 62.4194 76.8511 62.7173 76.7212C63.0152 76.5914 63.2859 76.4006 63.5138 76.1599C63.7417 75.9192 63.9223 75.6333 64.0453 75.3186C64.1682 75.004 64.2311 74.6668 64.2303 74.3264Z" fill="#ECECEC"/>
<path d="M55.5026 72.8232H42.0365C41.5763 72.8232 41.2032 73.2171 41.2032 73.703C41.2032 74.1889 41.5763 74.5827 42.0365 74.5827H55.5026C55.9628 74.5827 56.3359 74.1889 56.3359 73.703C56.3359 73.2171 55.9628 72.8232 55.5026 72.8232Z" fill="#ECECEC"/>
<path d="M78.121 34.6943V48.3196C78.121 49.101 77.8271 49.8503 77.304 50.4028C76.7809 50.9553 76.0714 51.2656 75.3317 51.2656H61.3155L55.3882 58.2182V51.2656H53.1289C52.3894 51.2647 51.6805 50.954 51.1576 50.4017C50.6347 49.8494 50.3405 49.1007 50.3396 48.3196V34.6943C50.3405 33.9133 50.6347 33.1645 51.1576 32.6122C51.6805 32.06 52.3894 31.7493 53.1289 31.7483H75.3317C76.0714 31.7483 76.7809 32.0587 77.304 32.6112C77.8271 33.1636 78.121 33.913 78.121 34.6943Z" fill="white"/>
<path d="M57.1887 45.2784C56.4048 45.3424 55.6265 45.0959 55.0054 44.5868C54.7687 44.3629 54.5788 44.0894 54.4478 43.7836C54.3168 43.4779 54.2476 43.1467 54.2446 42.8111H55.1253C55.1337 43.0517 55.1965 43.2868 55.3083 43.4966C55.4201 43.7065 55.5778 43.8851 55.7682 44.0175C56.1831 44.2876 56.6639 44.4233 57.151 44.4078C57.5854 44.4296 58.0161 44.3134 58.3874 44.0742C58.5334 43.9795 58.6534 43.8462 58.7356 43.6874C58.8178 43.5287 58.8593 43.35 58.856 43.169C58.8648 42.9886 58.8232 42.8094 58.7364 42.6538C58.6497 42.4981 58.5215 42.3728 58.3679 42.2933C57.8348 42.0402 57.2737 41.8588 56.6978 41.7535C56.0832 41.6563 55.4999 41.4036 54.9977 41.017C54.8278 40.8615 54.6933 40.6676 54.604 40.4497C54.5146 40.2318 54.4728 39.9955 54.4817 39.7583C54.477 39.4774 54.5355 39.1993 54.6522 38.9469C54.7689 38.6944 54.9406 38.4748 55.1532 38.3059C55.6678 37.9053 56.2977 37.7049 56.9362 37.7388C57.6064 37.7051 58.2683 37.9063 58.819 38.3111C59.0557 38.5006 59.2473 38.7457 59.379 39.0269C59.5107 39.308 59.5787 39.6177 59.5777 39.9314H58.6914C58.5984 39.0476 58.0269 38.6057 56.9767 38.6057C56.5617 38.5791 56.1487 38.6848 55.7912 38.9091C55.6617 38.9939 55.555 39.1127 55.4817 39.2539C55.4084 39.395 55.3709 39.5538 55.3729 39.7148C55.3659 39.8506 55.3935 39.9858 55.4528 40.1065C55.512 40.2272 55.6007 40.329 55.7097 40.4013C56.1038 40.6165 56.5273 40.7656 56.9648 40.8432C57.461 40.9509 57.9501 41.0921 58.4292 41.2659C58.7835 41.4002 59.1019 41.6228 59.3574 41.9148C59.6254 42.2401 59.7638 42.6624 59.7437 43.0932C59.7476 43.3937 59.6857 43.6911 59.5626 43.9621C59.4396 44.2331 59.2588 44.4704 59.0345 44.6553C58.5091 45.0886 57.8546 45.3095 57.1887 45.2784V45.2784Z" fill="#9F9F9F"/>
<path d="M67.5091 45.1534H66.6423V38.9499L64.6717 45.1534H63.8537L61.8824 38.9499V45.1534H61.0184V37.8621H62.3893L64.2596 43.9412L66.1423 37.8621H67.5133L67.5091 45.1534Z" fill="#9F9F9F"/>
<path d="M71.6588 45.2779C70.875 45.3419 70.0967 45.0954 69.4755 44.5863C69.239 44.3622 69.0494 44.0885 68.9186 43.7826C68.7879 43.4768 68.7189 43.1455 68.7161 42.8099H69.5969C69.6053 43.0505 69.668 43.2856 69.7798 43.4954C69.8917 43.7052 70.0494 43.8838 70.2398 44.0163C70.6547 44.2864 71.1354 44.4221 71.6226 44.4066C72.057 44.4283 72.4876 44.3121 72.8589 44.073C73.0049 43.9783 73.125 43.845 73.2072 43.6862C73.2894 43.5274 73.3309 43.3487 73.3275 43.1678C73.3363 42.9874 73.2948 42.8082 73.208 42.6525C73.1212 42.4969 72.993 42.3715 72.8394 42.2921C72.3063 42.039 71.7452 41.8576 71.1693 41.7523C70.5547 41.6551 69.9715 41.4024 69.4692 41.0158C69.2994 40.8602 69.1648 40.6664 69.0755 40.4485C68.9862 40.2306 68.9444 39.9943 68.9532 39.7571C68.9486 39.4762 69.007 39.1981 69.1238 38.9457C69.2405 38.6932 69.4122 38.4736 69.6247 38.3047C70.1393 37.904 70.7693 37.7037 71.4078 37.7376C72.078 37.7039 72.7399 37.905 73.2906 38.3098C73.5272 38.4994 73.7189 38.7445 73.8506 39.0256C73.9822 39.3068 74.0502 39.6165 74.0493 39.9302H73.1609C73.0679 39.0463 72.4963 38.6044 71.4462 38.6044C71.0311 38.5779 70.6182 38.6836 70.2607 38.9079C70.1311 38.9927 70.0245 39.1115 69.9512 39.2526C69.8779 39.3938 69.8404 39.5526 69.8423 39.7136C69.8354 39.8494 69.863 39.9846 69.9222 40.1053C69.9814 40.226 70.0701 40.3277 70.1791 40.4C70.5733 40.6153 70.9967 40.7644 71.4343 40.8419C71.9305 40.9497 72.4196 41.0909 72.8987 41.2647C73.253 41.399 73.5713 41.6216 73.8268 41.9136C74.0949 42.2389 74.2333 42.6612 74.2131 43.092C74.2171 43.3925 74.1551 43.6899 74.0321 43.9609C73.909 44.2319 73.7283 44.4692 73.504 44.6541C72.9789 45.0874 72.3246 45.3086 71.6588 45.2779V45.2779Z" fill="#9F9F9F"/>
</svg>
