<svg width="100" height="100" viewBox="0 0 100 100" fill="none" xmlns="http://www.w3.org/2000/svg">
<rect x="0.5" y="0.5" width="99" height="99" rx="19.5" stroke="#DCDCDC"/>
<path d="M51.2999 53H47.7899V37.55L44.5199 40.94L42.4799 38.81L48.2399 32.99H51.2999V53Z" fill="#ECECEC"/>
<path d="M48.329 63H47.069V59.22C47.069 58.524 46.753 58.176 46.121 58.176C45.857 58.176 45.601 58.252 45.353 58.404C45.105 58.556 44.913 58.736 44.777 58.944V63H43.517V59.22C43.517 58.524 43.197 58.176 42.557 58.176C42.301 58.176 42.049 58.252 41.801 58.404C41.561 58.556 41.369 58.74 41.225 58.956V63H39.965V57.204H41.225V57.996C41.369 57.78 41.617 57.572 41.969 57.372C42.329 57.164 42.709 57.06 43.109 57.06C43.949 57.06 44.477 57.416 44.693 58.128C44.877 57.84 45.149 57.592 45.509 57.384C45.869 57.168 46.253 57.06 46.661 57.06C47.773 57.06 48.329 57.644 48.329 58.812V63ZM50.5851 56.496C50.3771 56.496 50.1931 56.42 50.0331 56.268C49.8811 56.116 49.8051 55.932 49.8051 55.716C49.8051 55.5 49.8811 55.316 50.0331 55.164C50.1931 55.012 50.3771 54.936 50.5851 54.936C50.8011 54.936 50.9851 55.012 51.1371 55.164C51.2891 55.316 51.3651 55.5 51.3651 55.716C51.3651 55.932 51.2891 56.116 51.1371 56.268C50.9851 56.42 50.8011 56.496 50.5851 56.496ZM51.2211 63H49.9611V57.204H51.2211V63ZM58.0276 63H56.7676V59.376C56.7676 58.576 56.3796 58.176 55.6036 58.176C55.2996 58.176 55.0156 58.252 54.7516 58.404C54.4876 58.556 54.2756 58.74 54.1156 58.956V63H52.8556V57.204H54.1156V57.996C54.3316 57.74 54.6196 57.52 54.9796 57.336C55.3396 57.152 55.7316 57.06 56.1556 57.06C56.7716 57.06 57.2356 57.22 57.5476 57.54C57.8676 57.86 58.0276 58.32 58.0276 58.92V63Z" fill="#ECECEC"/>
<circle cx="50" cy="49" r="28.5" stroke="#DCDCDC"/>
<line x1="50.4" y1="23.4" x2="50.4" y2="27.6" stroke="#DCDCDC" stroke-width="0.8" stroke-linecap="round"/>
<line x1="75.6" y1="49.4" x2="71.4" y2="49.4" stroke="#DCDCDC" stroke-width="0.8" stroke-linecap="round"/>
<line x1="28.6" y1="49.4" x2="24.4" y2="49.4" stroke="#DCDCDC" stroke-width="0.8" stroke-linecap="round"/>
<line x1="50.4" y1="70.4" x2="50.4" y2="74.6" stroke="#DCDCDC" stroke-width="0.8" stroke-linecap="round"/>
<line x1="34.5355" y1="64.5657" x2="31.5657" y2="67.5355" stroke="#DCDCDC" stroke-width="0.8" stroke-linecap="round"/>
<line x1="68.5355" y1="31.5657" x2="65.5657" y2="34.5355" stroke="#DCDCDC" stroke-width="0.8" stroke-linecap="round"/>
<line x1="0.4" y1="-0.4" x2="4.6" y2="-0.4" transform="matrix(0.707107 0.707107 0.707107 -0.707107 65 64)" stroke="#DCDCDC" stroke-width="0.8" stroke-linecap="round"/>
<line x1="0.4" y1="-0.4" x2="4.6" y2="-0.4" transform="matrix(0.707107 0.707107 0.707107 -0.707107 31 31)" stroke="#DCDCDC" stroke-width="0.8" stroke-linecap="round"/>
</svg>
