<svg width="100" height="100" viewBox="0 0 100 100" fill="none" xmlns="http://www.w3.org/2000/svg">
<rect x="0.5" y="0.5" width="99" height="99" rx="19.5" stroke="#CBCBCB"/>
<path d="M30.5925 34.634C30.083 34.7762 29.6387 34.9776 29.6387 35.6115C29.6387 45.8899 29.6387 54.3022 32.1268 60.9373C34.6564 67.7027 39.692 72.5131 49.7334 75.3626C49.9018 75.4109 50.0804 75.4109 50.2488 75.3626C60.3199 72.5131 65.3377 67.6967 67.8732 60.9373C70.3317 54.3792 70.3613 46.1269 70.3613 36.0143C70.3613 35.4575 70.3613 34.9006 69.6741 34.7051C56.899 31.0617 43.363 31.0371 30.5747 34.634H30.5925V34.634Z" fill="#8F8F8F"/>
<path d="M74.3127 30.3978C58.5174 25.8937 41.7812 25.867 25.9716 30.3208C25.4621 30.4571 25 30.6467 25 31.3042C25 44.0116 25 54.4144 28.0806 62.566C31.1789 70.9013 37.3756 76.8196 49.7393 80.3148C49.9077 80.3631 50.0863 80.3631 50.2547 80.3148C62.6184 76.8018 68.8151 70.8776 71.9312 62.5838C74.9644 54.5092 74.9999 44.2663 74.9999 31.7782C74.9999 31.2035 75.0236 30.5993 74.3127 30.3978ZM70.1421 61.9381C67.2926 69.6158 61.5224 75.1193 50 78.4428C38.4775 75.1193 32.7606 69.6513 29.8578 61.9381C26.955 54.2248 26.8957 44.2189 26.8957 32.0211C42.0139 27.8353 57.985 27.8333 73.1042 32.0151C73.1042 44.2189 72.9916 54.2604 70.1421 61.9381Z" fill="#8F8F8F"/>
</svg>
