<svg width="100" height="100" viewBox="0 0 100 100" fill="none" xmlns="http://www.w3.org/2000/svg">
<rect x="0.5" y="0.5" width="99" height="99" rx="19.5" stroke="#CBCBCB"/>
<path d="M35.0545 45.9851C33.8556 45.9851 32.9367 46.3704 32.9367 46.3704L32.6828 47.8775C32.6828 47.8775 33.4409 47.5692 34.5888 47.5692C35.2403 47.5692 35.7163 47.6418 35.7163 48.1709C35.7163 48.4928 35.6585 48.6117 35.6585 48.6117C35.6585 48.6117 35.1452 48.5698 34.9072 48.5698C33.3945 48.5698 31.8058 49.2134 31.8058 51.1613C31.8058 52.6956 32.8471 53.0457 33.4942 53.0457C34.7282 53.0457 35.2607 52.2457 35.2879 52.2435L35.2301 52.912H36.7701L37.4568 48.0962C37.4556 46.0508 35.6732 45.9851 35.0545 45.9851ZM34.1911 51.5806C33.6483 51.5806 33.5066 51.167 33.5066 50.92C33.5066 50.4418 33.7661 49.8661 35.0477 49.8661C35.3469 49.8673 35.3786 49.8979 35.4284 49.9069C35.4624 50.2015 35.2449 51.5806 34.1911 51.5806Z" fill="#8F8F8F"/>
<path d="M40.6162 47.6006C40.8621 47.6006 41.8106 47.6787 41.8106 47.6787L42.0315 46.1354C42.0315 46.1354 41.4174 45.9983 40.4179 45.9983C39.1239 45.9983 37.8117 46.515 37.8117 48.2816C37.8117 50.285 40.0009 50.081 40.0009 50.9263C40.0009 51.4884 39.389 51.5348 38.9176 51.5348C38.1006 51.5348 37.3664 51.2561 37.3641 51.2674L37.1307 52.7983C37.1726 52.8096 37.6259 53.0113 39.0933 53.0113C39.4865 53.0113 41.738 53.1133 41.738 50.7892C41.738 48.6159 39.6542 49.0453 39.6542 48.1717C39.6542 47.7365 39.993 47.6006 40.6162 47.6006Z" fill="#8F8F8F"/>
<path d="M44.295 47.797H45.2208L45.444 46.1517H44.5715L44.7494 45.1318H43.001C42.9625 45.1692 41.9687 50.8837 41.9687 51.5772C41.9687 52.6095 42.5477 53.0672 43.3625 53.0593C44.0004 53.0548 44.4979 52.878 44.6735 52.8293L44.8922 51.3426C44.7721 51.3426 44.5965 51.3947 44.4412 51.3947C43.8327 51.3947 43.7659 51.0695 43.8044 50.8304L44.295 47.797Z" fill="#8F8F8F"/>
<path d="M51.6246 38.2522H48.5039C48.0846 38.8188 47.6903 39.4216 47.3334 40.0108H52.9005C52.5141 39.3967 52.0869 38.8097 51.6246 38.2522Z" fill="#8F8F8F"/>
<path d="M75.9726 58.0345C75.9386 57.9835 75.9103 57.945 75.8877 57.9212C75.8752 57.9099 75.8593 57.8974 75.8389 57.8917C75.8877 57.8883 75.9284 57.8702 75.9579 57.8396C75.9862 57.809 76.0021 57.7728 76.0021 57.7308C76.0021 57.7014 75.993 57.673 75.976 57.647C75.959 57.6209 75.9341 57.6017 75.9035 57.5915C75.8752 57.5801 75.8265 57.5745 75.7596 57.5745H75.5624V58.1467H75.6554V57.9042H75.7086C75.7403 57.9042 75.7664 57.911 75.7811 57.9246C75.8049 57.9439 75.8389 57.9881 75.8786 58.0572L75.9284 58.1478H76.0429L75.9726 58.0345ZM75.7664 57.8283H75.6531V57.656H75.7596C75.8038 57.656 75.8333 57.6594 75.8503 57.6662C75.8684 57.673 75.8797 57.6832 75.8899 57.6957C75.899 57.7093 75.9035 57.724 75.9035 57.7399C75.9035 57.766 75.8945 57.7886 75.8752 57.8045C75.8559 57.8192 75.8185 57.8283 75.7664 57.8283Z" fill="#8F8F8F"/>
<path d="M53.846 41.7358H46.3593C45.8811 42.6412 45.5638 43.3256 45.4743 43.4956H54.5553C54.3502 42.8905 54.1145 42.3047 53.846 41.7358Z" fill="#8F8F8F"/>
<path d="M29.6635 44.593L27.94 49.7035L27.8505 44.593H25.2986L23.9003 52.9205H25.5876L26.6516 46.6429L26.808 52.9205H28.0125L30.2595 46.6429L29.2635 52.9205H31.0539L32.4329 44.593H29.6635Z" fill="#8F8F8F"/>
<path d="M63.4042 45.9851C62.2031 45.9851 61.2852 46.3704 61.2852 46.3704L61.0303 47.8775C61.0303 47.8775 61.7895 47.5692 62.9362 47.5692C63.5878 47.5692 64.0648 47.6418 64.0648 48.1709C64.0648 48.4928 64.0048 48.6117 64.0048 48.6117C64.0048 48.6117 63.4926 48.5698 63.2523 48.5698C61.7407 48.5698 60.1532 49.2134 60.1532 51.1613C60.1532 52.6956 61.1957 53.0457 61.8416 53.0457C63.0744 53.0457 63.607 52.2457 63.6353 52.2435L63.5776 52.912H65.1164L65.8031 48.0962C65.8065 46.0508 64.0229 45.9851 63.4042 45.9851ZM62.543 51.5806C61.9991 51.5806 61.8586 51.167 61.8586 50.92C61.8586 50.4418 62.1181 49.8661 63.3997 49.8661C63.6977 49.8673 63.7294 49.8979 63.7804 49.9069C63.8133 50.2015 63.5946 51.5806 62.543 51.5806Z" fill="#8F8F8F"/>
<path d="M76.0283 52.1528C75.9818 52.0666 75.9138 52.0009 75.8288 51.9556C75.745 51.9091 75.6589 51.8865 75.5682 51.8865C75.481 51.8876 75.3937 51.9103 75.3076 51.9556C75.2226 52.0009 75.1569 52.0666 75.1093 52.1528C75.0617 52.2377 75.0379 52.3261 75.0379 52.4179C75.0379 52.5097 75.0617 52.597 75.1093 52.6808C75.1557 52.7647 75.2215 52.8315 75.3053 52.8791C75.3903 52.9256 75.4776 52.9494 75.5682 52.9494C75.6611 52.9494 75.7495 52.9256 75.8322 52.8791C75.9161 52.8315 75.9818 52.7647 76.0283 52.6808C76.077 52.597 76.0985 52.5097 76.0985 52.4179C76.0985 52.3239 76.0759 52.2355 76.0283 52.1528ZM75.9546 52.6366C75.9161 52.7069 75.8617 52.7601 75.7903 52.8021C75.7201 52.8406 75.6475 52.861 75.5716 52.861C75.4946 52.861 75.4209 52.8406 75.3518 52.8021C75.2804 52.7624 75.2271 52.708 75.1863 52.6366C75.1456 52.5652 75.1274 52.4927 75.1274 52.4168C75.1274 52.3409 75.1467 52.2672 75.1886 52.1958C75.2283 52.1256 75.2815 52.0712 75.3541 52.0315C75.4266 51.9919 75.498 51.9749 75.5716 51.9749C75.6453 51.9749 75.7178 51.993 75.7869 52.0315C75.8594 52.0712 75.9127 52.1244 75.9524 52.1958C75.992 52.2672 76.0135 52.3409 76.0135 52.4168C76.0135 52.4927 75.9943 52.5664 75.9546 52.6366Z" fill="#8F8F8F"/>
<path d="M75.748 52.599C75.7151 52.5457 75.6857 52.5083 75.6642 52.4857C75.6506 52.4732 75.6358 52.463 75.6154 52.4562C75.6642 52.4528 75.7038 52.4347 75.7333 52.4041C75.7616 52.3746 75.7786 52.3361 75.7786 52.2953C75.7786 52.267 75.7695 52.2375 75.7514 52.2114C75.7333 52.1865 75.7095 52.1672 75.6811 52.1559C75.6528 52.1446 75.603 52.1389 75.5361 52.1389H75.3367V52.71H75.4296V52.4675H75.4828C75.5157 52.4675 75.5418 52.4743 75.5576 52.4868C75.5814 52.5072 75.6132 52.5502 75.6551 52.6216L75.7038 52.7112H75.8183L75.748 52.599ZM75.544 52.3893H75.4319V52.216H75.5361C75.5814 52.216 75.6109 52.2194 75.629 52.225C75.6438 52.233 75.6574 52.2409 75.6664 52.2556C75.6766 52.2704 75.6811 52.2828 75.6811 52.3021C75.6811 52.327 75.671 52.3485 75.654 52.3644C75.6324 52.3837 75.5973 52.3893 75.544 52.3893Z" fill="#8F8F8F"/>
<path d="M69.3458 46.0681C68.5628 46.0681 67.9815 47.1367 67.9815 47.1367L68.1379 46.1542H66.5085L65.4172 52.9327H67.2121C67.7232 50.0364 67.8161 47.6874 69.0297 48.1168C69.2439 46.9973 69.4501 46.5633 69.6824 46.0908C69.6824 46.0919 69.5736 46.0681 69.3458 46.0681Z" fill="#8F8F8F"/>
<path d="M73.856 44.602L73.4787 46.942C73.4787 46.942 72.8215 46.0321 71.7903 46.0321C70.1869 46.0332 68.8521 47.9652 68.8521 50.1839C68.8521 51.6173 69.5648 53.0213 71.0198 53.0213C72.0679 53.0213 72.6481 52.2904 72.6481 52.2904L72.5722 52.9148H74.273L75.6101 44.5986L73.856 44.602ZM71.6385 51.3216C71.0084 51.3216 70.7138 50.7935 70.7138 49.9641C70.7138 48.6077 71.3223 47.7136 72.0917 47.7136C72.7195 47.7148 73.0424 48.1465 73.0424 49.1641C73.0424 50.0876 72.5858 51.3216 71.6385 51.3216Z" fill="#8F8F8F"/>
<path d="M80.3524 28H19.6476C18.7365 28 18 28.7377 18 29.6476V67.8289C18 68.7388 18.7365 69.4765 19.6476 69.4765H80.3524C81.2635 69.4765 82 68.7388 82 67.8289V29.6476C82 28.7377 81.2635 28 80.3524 28ZM76.2538 58.1179C76.2062 58.204 76.1416 58.2697 76.0578 58.3162C75.9739 58.3626 75.8856 58.3864 75.7949 58.3864C75.702 58.3864 75.6136 58.3626 75.5297 58.3162C75.447 58.2697 75.3813 58.204 75.3326 58.1179C75.2861 58.0351 75.2623 57.9467 75.2623 57.855C75.2623 57.7632 75.2861 57.6759 75.3337 57.5898C75.3802 57.5037 75.4482 57.4391 75.532 57.3926C75.617 57.3484 75.7031 57.3246 75.7938 57.3246C75.8833 57.3246 75.9694 57.3484 76.0533 57.3926C76.1382 57.4391 76.2051 57.5037 76.2516 57.5898C76.2992 57.6759 76.3218 57.7643 76.3218 57.855C76.3218 57.9456 76.3014 58.0374 76.2538 58.1179ZM77.4414 48.7388C77.4436 57.8096 70.0941 65.166 61.0221 65.1683C56.7796 65.1694 52.911 63.5615 49.9966 60.9201C47.0822 63.5569 43.2215 65.1637 38.9858 65.1637C29.9195 65.1637 22.5609 57.8062 22.5609 48.7388C22.5609 39.7076 29.8618 32.3717 38.8805 32.3127C38.9156 32.3127 38.9507 32.3127 38.9858 32.3127C43.2215 32.3127 47.0833 33.9195 49.9977 36.5564C52.911 33.9184 56.7751 32.3105 61.0142 32.3093C70.0861 32.3059 77.4414 39.6589 77.4436 48.7309C77.4414 48.7331 77.4414 48.7343 77.4414 48.7388Z" fill="#8F8F8F"/>
<path d="M48.3149 59.1235C48.8351 59.7604 49.3858 60.3677 49.9943 60.9184C50.0079 60.906 50.0226 60.8946 50.0362 60.8833C50.0362 60.8833 50.0351 60.8833 50.0351 60.8822H50.0385C50.6368 60.3371 51.1954 59.7502 51.7064 59.1235H48.3149Z" fill="#8F8F8F"/>
<path d="M50.5522 50.1081C50.5522 50.1081 50.7822 48.975 50.7822 48.5138C50.7822 47.3614 50.2088 45.9563 48.2893 45.9563C46.5306 45.9574 45.2286 47.8521 45.2286 49.9937C45.2286 52.4651 46.8592 53.0521 48.2496 53.0521C49.5323 53.0521 50.0966 52.7642 50.0966 52.7642L50.4048 51.0781C50.4048 51.0781 49.4292 51.5087 48.5476 51.5087C46.67 51.5087 46.9986 50.1081 46.9986 50.1081H50.5522ZM48.2949 47.5257C49.2819 47.5257 49.0995 48.6351 49.0995 48.7234H47.1584C47.1584 48.609 47.342 47.5257 48.2949 47.5257Z" fill="#8F8F8F"/>
<path d="M58.7534 46.1885C59.6429 46.1885 60.3579 46.6882 60.3579 46.6882L60.6435 44.8356C60.6435 44.8356 59.5851 44.4072 58.6741 44.4072C56.6559 44.4072 54.6922 46.1591 54.6922 49.4486C54.6922 51.6299 55.7517 53.0701 57.8389 53.0701C58.4282 53.0701 59.3687 52.831 59.3687 52.831L59.6814 50.9228C59.6814 50.9228 58.8248 51.3523 58.2355 51.3523C56.9936 51.3511 56.4962 50.4038 56.4962 49.3885C56.4962 47.3228 57.5636 46.1885 58.7534 46.1885Z" fill="#8F8F8F"/>
<path d="M46.1228 55.6733C46.4072 56.2841 46.7381 56.8654 47.0928 57.432H52.9205C53.2741 56.8677 53.5925 56.2807 53.8769 55.6733H46.1228Z" fill="#8F8F8F"/>
<path d="M54.6603 46.0705C53.8773 46.0705 53.2971 47.139 53.2971 47.139L53.4546 46.1566H51.8263L50.735 52.9351H52.5299C53.0387 50.0399 53.1339 47.6897 54.3475 48.1192C54.5605 46.9985 54.7656 46.5645 54.9979 46.0909C54.9979 46.0909 54.8892 46.0682 54.6603 46.0705Z" fill="#8F8F8F"/>
</svg>
