<svg width="100" height="100" viewBox="0 0 100 100" fill="none" xmlns="http://www.w3.org/2000/svg">
<rect x="0.5" y="0.5" width="99" height="99" rx="19.5" stroke="#CBCBCB"/>
<path d="M44.3568 41.3118L41.2654 59.4531H46.2095L49.3035 41.3118H44.3568Z" fill="#8F8F8F"/>
<path d="M37.1181 41.3317L32.2757 53.7035L31.7594 51.8355C30.8044 49.5847 28.0933 46.3522 24.9103 44.315L29.3382 59.4438L34.5698 59.4349L42.3561 41.3279L37.1181 41.3317Z" fill="#8F8F8F"/>
<path d="M29.8833 42.6303C29.5959 41.5253 28.763 41.1959 27.7291 41.1565H20.0636L20.0001 41.5176C25.9654 42.9648 29.9125 46.4516 31.5504 50.6443L29.8833 42.6303Z" fill="#8F8F8F"/>
<path d="M59.3232 44.7895C60.9407 44.7641 62.1132 45.1176 63.0237 45.4838L63.47 45.6936L64.1389 41.7617C63.1597 41.3942 61.6249 41 59.7098 41C54.8241 41 51.3805 43.4606 51.3538 46.9869C51.322 49.5925 53.8068 51.0473 55.6837 51.9158C57.6103 52.806 58.2563 53.3719 58.2474 54.1666C58.2321 55.3811 56.7112 55.938 55.2908 55.938C53.3108 55.938 52.2592 55.6646 50.6353 54.9881L49.9982 54.6982L49.3026 58.7585C50.4598 59.2659 52.5949 59.7021 54.8114 59.725C60.0086 59.725 63.3861 57.2936 63.4217 53.5257C63.4433 51.4644 62.1246 49.8914 59.2672 48.6006C57.5378 47.7588 56.4798 47.1993 56.49 46.3498C56.49 45.5957 57.3877 44.7895 59.3232 44.7895Z" fill="#8F8F8F"/>
<path d="M76.8275 41.3328H73.0074C71.821 41.3328 70.9385 41.6558 70.4171 42.8384L63.0759 59.4639H68.268C68.268 59.4639 69.1149 57.2283 69.3069 56.7388C69.8754 56.7388 74.92 56.7464 75.6385 56.7464C75.786 57.3797 76.2412 59.4639 76.2412 59.4639H80.8281L76.8275 41.3328ZM70.7299 53.0256C71.1368 51.9841 72.6997 47.9555 72.6997 47.9555C72.673 48.0051 73.1028 46.9064 73.3584 46.2235L73.6916 47.7876C73.6916 47.7876 74.639 52.1189 74.8373 53.0256H70.7299Z" fill="#8F8F8F"/>
</svg>
