<svg width="390" height="236" viewBox="0 0 390 236" fill="none" xmlns="http://www.w3.org/2000/svg">
<path opacity="0.9" d="M98.4019 235.897C79.7832 235.897 63.1131 231.351 48.3914 222.258C33.6697 212.948 22.0872 199.526 13.6439 181.99C5.20053 164.453 0.978863 143.237 0.978863 118.34C0.978863 93.4428 5.20053 72.2263 13.6439 54.6901C22.0872 37.154 33.6697 23.8395 48.3914 14.7467C63.1131 5.43741 79.7832 0.782755 98.4019 0.782755C117.237 0.782755 133.907 5.43741 148.412 14.7467C163.134 23.8395 174.717 37.154 183.16 54.6901C191.603 72.2263 195.825 93.4428 195.825 118.34C195.825 143.237 191.603 164.453 183.16 181.99C174.717 199.526 163.134 212.948 148.412 222.258C133.907 231.351 117.237 235.897 98.4019 235.897ZM98.4019 191.407C107.278 191.407 114.964 188.917 121.459 183.938C128.17 178.959 133.366 171.057 137.046 160.232C140.943 149.407 142.892 135.443 142.892 118.34C142.892 101.237 140.943 87.2727 137.046 76.4479C133.366 65.6232 128.17 57.7211 121.459 52.7417C114.964 47.7623 107.278 45.2726 98.4019 45.2726C89.742 45.2726 82.0565 47.7623 75.3451 52.7417C68.8502 57.7211 63.6543 65.6232 59.7574 76.4479C56.077 87.2727 54.2368 101.237 54.2368 118.34C54.2368 135.443 56.077 149.407 59.7574 160.232C63.6543 171.057 68.8502 178.959 75.3451 183.938C82.0565 188.917 89.742 191.407 98.4019 191.407ZM218.169 232V197.902L305.849 115.092C312.777 108.814 317.865 103.185 321.112 98.2057C324.36 93.2263 326.525 88.6799 327.607 84.5665C328.906 80.4531 329.556 76.6644 329.556 73.2005C329.556 64.1077 326.416 57.1798 320.138 52.4169C314.076 47.4375 305.092 44.9478 293.184 44.9478C283.659 44.9478 274.782 46.7881 266.555 50.4685C258.545 54.1489 251.726 59.886 246.097 67.6799L207.777 42.9994C216.437 30.0097 228.56 19.7261 244.148 12.1488C259.736 4.57142 277.705 0.782755 298.056 0.782755C314.942 0.782755 329.664 3.59719 342.221 9.22607C354.994 14.6385 364.844 22.3241 371.772 32.2829C378.917 42.2417 382.489 54.1489 382.489 68.0046C382.489 75.3655 381.515 82.7263 379.566 90.0872C377.834 97.2315 374.154 104.809 368.525 112.819C363.112 120.83 355.102 129.814 344.494 139.773L271.751 208.294L261.684 189.134H389.958V232H218.169Z" fill="url(#paint0_linear_401_38)"/>
<defs>
<linearGradient id="paint0_linear_401_38" x1="109.094" y1="-94.553" x2="175.259" y2="319.856" gradientUnits="userSpaceOnUse">
<stop stop-color="#FF6652"/>
<stop offset="1" stop-color="#FFE4E0" stop-opacity="0"/>
</linearGradient>
</defs>
</svg>
