<svg width="756" height="337" viewBox="0 0 756 337" fill="none" xmlns="http://www.w3.org/2000/svg">
<g filter="url(#filter0_bd_1075_3)">
<path d="M420 67.3024C420 60.5074 425.508 54.999 432.303 54.999H607.011C613.806 54.999 619.315 60.5074 619.315 67.3024V261.696C619.315 268.491 613.806 273.999 607.011 273.999H432.303C425.508 273.999 420 268.491 420 261.696V67.3024Z" fill="#FBFBFB"/>
</g>
<g filter="url(#filter1_bd_1075_3)">
<path d="M431 59.2574C431 51.935 436.936 45.999 444.258 45.999H632.528C639.851 45.999 645.787 51.935 645.787 59.2575V268.741C645.787 276.063 639.851 281.999 632.528 281.999H444.258C436.936 281.999 431 276.063 431 268.741V59.2574Z" fill="#FBFBFB"/>
</g>
<g filter="url(#filter2_bd_1075_3)">
<path d="M441 47.0921C441 38.7095 447.795 31.9141 456.178 31.9141H671.707C680.089 31.9141 686.885 38.7095 686.885 47.0921V286.906C686.885 295.288 680.089 302.084 671.707 302.084H456.178C447.795 302.084 441 295.288 441 286.906V47.0921Z" fill="#FBFBFB"/>
</g>
<circle cx="504.369" cy="81.6227" r="12.9014" stroke="#CECECE" stroke-width="2.27671"/>
<path d="M517.27 81.6227C517.27 83.7519 516.743 85.848 515.736 87.724C514.729 89.6001 513.274 91.1977 511.499 92.3745C509.725 93.5513 507.687 94.2706 505.567 94.4684C503.447 94.6661 501.311 94.336 499.349 93.5077" stroke="#FC6652" stroke-width="2.27671" stroke-linecap="round" stroke-linejoin="round"/>
<path d="M441 66.8232H474.392V302.084H456.178C447.795 302.084 441 295.288 441 286.905V66.8232Z" fill="#FC6652"/>
<path d="M463.952 85.5749C463.952 85.5746 463.951 85.5742 463.951 85.5739L458.465 80.0883C458.231 79.8544 457.92 79.7256 457.59 79.7256C457.259 79.7256 456.948 79.8544 456.714 80.0883L451.231 85.5711C451.229 85.573 451.227 85.5749 451.226 85.5767C450.746 86.0597 450.746 86.8433 451.228 87.325C451.448 87.5452 451.739 87.6726 452.05 87.686C452.062 87.6873 452.075 87.6879 452.088 87.6879H452.306V91.7248C452.306 92.5238 452.956 93.1738 453.755 93.1738H455.902C456.119 93.1738 456.296 92.9973 456.296 92.7798V89.6147C456.296 89.2502 456.592 88.9537 456.957 88.9537H458.223C458.587 88.9537 458.884 89.2502 458.884 89.6147V92.7798C458.884 92.9973 459.06 93.1738 459.278 93.1738H461.424C462.223 93.1738 462.873 92.5238 462.873 91.7248V87.6879H463.076C463.406 87.6879 463.717 87.5591 463.951 87.3251C464.433 86.8426 464.434 86.0576 463.952 85.5749ZM463.394 86.768C463.309 86.853 463.196 86.8999 463.076 86.8999H462.479C462.261 86.8999 462.085 87.0763 462.085 87.2939V91.7248C462.085 92.0893 461.788 92.3858 461.424 92.3858H459.672V89.6147C459.672 88.8158 459.022 88.1657 458.223 88.1657H456.957C456.158 88.1657 455.508 88.8158 455.508 89.6147V92.3858H453.755C453.391 92.3858 453.094 92.0893 453.094 91.7248V87.2939C453.094 87.0763 452.918 86.8999 452.7 86.8999H452.114C452.108 86.8995 452.102 86.8992 452.095 86.8991C451.978 86.897 451.868 86.8504 451.785 86.7678C451.61 86.5924 451.61 86.3069 451.785 86.1313C451.785 86.1314 451.786 86.1313 451.785 86.1313L457.272 80.6454C457.356 80.5604 457.469 80.5136 457.59 80.5136C457.71 80.5136 457.823 80.5604 457.908 80.6454L463.392 86.1297C463.393 86.1305 463.394 86.1313 463.395 86.1321C463.569 86.3079 463.569 86.5928 463.394 86.768Z" fill="white" fill-opacity="0.7"/>
<path d="M464.526 129.146H450.865V129.601H464.526V129.146Z" fill="white" fill-opacity="0.7"/>
<path d="M464.576 129.146V129.096H464.526H450.865H450.815V129.146V129.601V129.651H450.865H464.526H464.576V129.601V129.146Z" stroke="white" stroke-opacity="0.7" stroke-width="0.1"/>
<path d="M451.776 128.69H454.053C454.179 128.69 454.281 128.588 454.281 128.462V124.364C454.281 124.238 454.179 124.136 454.053 124.136H451.776C451.65 124.136 451.549 124.238 451.549 124.364V128.462C451.549 128.588 451.65 128.69 451.776 128.69ZM452.004 124.592H453.825V128.235H452.004V124.592Z" fill="white" fill-opacity="0.7"/>
<path d="M451.776 128.74H454.053C454.206 128.74 454.331 128.616 454.331 128.462V124.364C454.331 124.211 454.206 124.086 454.053 124.086H451.776C451.623 124.086 451.499 124.211 451.499 124.364V128.462C451.499 128.616 451.623 128.74 451.776 128.74ZM452.054 124.642H453.775V128.185H452.054V124.642Z" stroke="white" stroke-opacity="0.7" stroke-width="0.1"/>
<path d="M458.151 128.69H460.428C460.554 128.69 460.656 128.588 460.656 128.462V121.632C460.656 121.507 460.554 121.405 460.428 121.405H458.151C458.026 121.405 457.924 121.507 457.924 121.632V128.462C457.924 128.588 458.026 128.69 458.151 128.69ZM458.379 121.86H460.2V128.235H458.379V121.86Z" fill="white" fill-opacity="0.7"/>
<path d="M458.151 128.74H460.428C460.581 128.74 460.706 128.616 460.706 128.462V121.632C460.706 121.479 460.581 121.355 460.428 121.355H458.151C457.998 121.355 457.874 121.479 457.874 121.632V128.462C457.874 128.616 457.998 128.74 458.151 128.74ZM458.429 121.91H460.15V128.185H458.429V121.91Z" stroke="white" stroke-opacity="0.7" stroke-width="0.1"/>
<path d="M454.963 128.69H457.24C457.365 128.69 457.467 128.588 457.467 128.462V118.9C457.467 118.774 457.365 118.672 457.24 118.672H454.963C454.837 118.672 454.735 118.774 454.735 118.9V128.462C454.735 128.588 454.837 128.69 454.963 128.69ZM455.191 119.128H457.012V128.234H455.191V119.128Z" fill="white" fill-opacity="0.7"/>
<path d="M454.963 128.74H457.24C457.393 128.74 457.517 128.615 457.517 128.462V118.9C457.517 118.747 457.393 118.622 457.24 118.622H454.963C454.81 118.622 454.685 118.747 454.685 118.9V128.462C454.685 128.615 454.81 128.74 454.963 128.74ZM455.241 119.178H456.962V128.184H455.241V119.178Z" stroke="white" stroke-opacity="0.7" stroke-width="0.1"/>
<path d="M461.338 128.69H463.615C463.741 128.69 463.842 128.588 463.842 128.462V116.168C463.842 116.042 463.741 115.94 463.615 115.94H461.338C461.212 115.94 461.11 116.042 461.11 116.168V128.462C461.11 128.588 461.212 128.69 461.338 128.69ZM461.566 116.396H463.387V128.235H461.566V116.396Z" fill="white" fill-opacity="0.7"/>
<path d="M461.338 128.74H463.615C463.768 128.74 463.892 128.616 463.892 128.462V116.168C463.892 116.015 463.768 115.89 463.615 115.89H461.338C461.185 115.89 461.06 116.015 461.06 116.168V128.462C461.06 128.616 461.185 128.74 461.338 128.74ZM461.616 116.446H463.337V128.185H461.616V116.446Z" stroke="white" stroke-opacity="0.7" stroke-width="0.1"/>
<path d="M461.059 195.389V194.186C461.059 192.431 459.892 190.943 458.293 190.457V189.912C458.293 189.289 457.786 188.781 457.162 188.781C456.538 188.781 456.031 189.289 456.031 189.912V190.457C454.432 190.943 453.266 192.431 453.266 194.186V195.389C453.266 196.931 452.678 198.393 451.611 199.506C451.506 199.615 451.477 199.776 451.536 199.915C451.595 200.054 451.732 200.144 451.883 200.144H455.315C455.49 201.003 456.252 201.652 457.162 201.652C458.073 201.652 458.834 201.003 459.01 200.144H462.441C462.592 200.144 462.729 200.054 462.788 199.915C462.847 199.776 462.818 199.615 462.713 199.506C461.646 198.393 461.059 196.931 461.059 195.389ZM456.785 189.912C456.785 189.705 456.954 189.535 457.162 189.535C457.37 189.535 457.539 189.705 457.539 189.912V190.308C457.415 190.296 457.289 190.29 457.162 190.29C457.035 190.29 456.909 190.296 456.785 190.308V189.912ZM457.162 200.898C456.67 200.898 456.251 200.583 456.096 200.144H458.228C458.073 200.583 457.654 200.898 457.162 200.898ZM452.696 199.39C453.554 198.239 454.02 196.846 454.02 195.389V194.186C454.02 192.453 455.429 191.044 457.162 191.044C458.895 191.044 460.304 192.453 460.304 194.186V195.389C460.304 196.846 460.77 198.239 461.628 199.39H452.696Z" fill="white" fill-opacity="0.7"/>
<path d="M462.064 194.186C462.064 194.394 462.233 194.563 462.441 194.563C462.65 194.563 462.818 194.394 462.818 194.186C462.818 192.675 462.23 191.255 461.162 190.186C461.015 190.039 460.776 190.039 460.629 190.186C460.481 190.334 460.481 190.572 460.629 190.72C461.554 191.646 462.064 192.877 462.064 194.186Z" fill="white" fill-opacity="0.7"/>
<path d="M451.883 194.563C452.091 194.563 452.26 194.394 452.26 194.186C452.26 192.877 452.77 191.646 453.696 190.72C453.843 190.572 453.843 190.334 453.696 190.186C453.549 190.039 453.31 190.039 453.163 190.186C452.094 191.255 451.506 192.675 451.506 194.186C451.506 194.394 451.675 194.563 451.883 194.563Z" fill="white" fill-opacity="0.7"/>
<path d="M464.431 157.269L462.905 153.301C462.616 152.55 461.773 152.177 461.023 152.466C461.012 152.47 461.001 152.475 460.991 152.479L453.364 155.64C452.638 155.938 452.281 156.76 452.559 157.494L452.769 158.054H452.288C451.503 158.055 450.867 158.691 450.866 159.476V164.593C450.867 165.378 451.503 166.014 452.288 166.015H461.954C462.739 166.014 463.375 165.378 463.376 164.593V159.476C463.375 159.398 463.368 159.321 463.355 159.245L463.619 159.139C464.352 158.838 464.712 158.009 464.431 157.269ZM452.288 158.509H461.954C462.465 158.51 462.886 158.909 462.915 159.419H451.327C451.356 158.909 451.777 158.51 452.288 158.509ZM454.574 157.139L456.094 156.379L456.407 157.16L454.886 157.92L454.574 157.139ZM462.921 164.593C462.92 165.127 462.488 165.559 461.954 165.56H452.288C451.754 165.559 451.322 165.127 451.321 164.593V161.693H462.921V164.593ZM462.921 161.238H451.321V159.874H462.921V161.238ZM463.449 158.718L463.211 158.814C462.965 158.348 462.482 158.055 461.954 158.054H455.636L456.797 157.473C456.903 157.421 456.951 157.295 456.907 157.186L456.424 155.98C456.378 155.863 456.245 155.807 456.129 155.853C456.123 155.856 456.117 155.858 456.112 155.861L454.183 156.826C454.077 156.879 454.03 157.004 454.074 157.114L454.45 158.054H453.254L452.985 157.336C452.794 156.832 453.039 156.267 453.538 156.062L461.165 152.901C461.674 152.689 462.259 152.931 462.471 153.441C462.474 153.449 462.477 153.457 462.48 153.465L464.006 157.433C464.199 157.942 463.952 158.512 463.449 158.718Z" fill="white" fill-opacity="0.7"/>
<path d="M461.954 158.004H461.954C462.485 158.005 462.973 158.291 463.233 158.751L463.43 158.672C463.43 158.672 463.43 158.672 463.43 158.672C463.908 158.476 464.143 157.934 463.96 157.451L462.433 153.483L462.433 153.483C462.431 153.475 462.428 153.468 462.424 153.46L462.424 153.46C462.224 152.976 461.668 152.746 461.184 152.947L461.165 152.901L461.184 152.947L453.557 156.108L453.557 156.108C453.083 156.303 452.851 156.839 453.032 157.318L453.032 157.318L453.289 158.004H454.376L454.027 157.132C453.974 156.998 454.032 156.846 454.161 156.781L454.161 156.781L456.089 155.816L461.954 158.004ZM461.954 158.004H455.848M461.954 158.004L455.748 158.054L455.848 158.004M456.953 157.167L456.953 157.167C457.007 157.301 456.949 157.454 456.82 157.518M456.953 157.167L455.736 158.004H455.848M456.953 157.167L456.471 155.961M456.953 157.167L456.11 155.807M456.82 157.518L456.797 157.473L456.82 157.518L456.82 157.518ZM456.82 157.518L455.848 158.004M456.11 155.807L456.11 155.807C456.253 155.75 456.414 155.819 456.471 155.961M456.11 155.807C456.103 155.81 456.096 155.813 456.089 155.816L456.11 155.807ZM456.471 155.961L456.424 155.98L456.471 155.961L456.471 155.961ZM461.954 158.559H452.288L452.288 158.559M461.954 158.559L452.288 158.509V158.559M461.954 158.559C461.954 158.559 461.954 158.559 461.954 158.559C462.42 158.56 462.808 158.911 462.861 159.369M461.954 158.559L461.954 158.509L462.861 159.369M452.288 158.559C451.822 158.56 451.434 158.911 451.381 159.369M452.288 158.559L451.381 159.369M451.381 159.369H462.861M451.381 159.369H462.861M461.954 165.51C462.46 165.509 462.87 165.099 462.871 164.593V161.743H451.371L451.371 164.593L451.371 164.593M461.954 165.51L451.321 164.593H451.371M461.954 165.51H452.288M461.954 165.51H452.288M451.371 164.593C451.372 165.099 451.782 165.509 452.288 165.51M451.371 164.593L452.288 165.51M464.478 157.251L464.478 157.251L462.952 153.283L462.952 153.283C462.653 152.507 461.781 152.12 461.005 152.419L461.005 152.419C460.994 152.424 460.983 152.428 460.972 152.433L460.971 152.433L453.345 155.594C453.345 155.594 453.345 155.594 453.345 155.594C452.594 155.902 452.225 156.753 452.512 157.512C452.512 157.512 452.512 157.512 452.512 157.512L452.697 158.004H452.288H452.288C451.475 158.005 450.817 158.663 450.816 159.476V159.476L450.816 164.593L450.816 164.593C450.817 165.405 451.475 166.064 452.288 166.065H452.288H461.954H461.954C462.766 166.064 463.425 165.405 463.426 164.593V164.593L463.426 159.476L463.426 159.475C463.425 159.409 463.42 159.343 463.411 159.277L463.638 159.185L463.638 159.185C464.396 158.874 464.768 158.017 464.478 157.251ZM454.913 157.851L454.637 157.163L456.068 156.448L456.343 157.136L454.913 157.851ZM462.871 161.188H451.371V159.924H462.871V161.188Z" stroke="white" stroke-opacity="0.7" stroke-width="0.1"/>
<path d="M459.047 164.92C459.471 165.166 459.994 165.166 460.418 164.92C461.069 165.299 461.905 165.077 462.283 164.426C462.662 163.774 462.441 162.939 461.789 162.56C461.58 162.439 461.342 162.375 461.1 162.375C460.86 162.376 460.625 162.439 460.418 162.56C459.766 162.182 458.931 162.403 458.552 163.055C458.174 163.706 458.395 164.542 459.047 164.92ZM460.798 162.886C460.895 162.85 460.997 162.831 461.1 162.83C461.603 162.83 462.01 163.238 462.01 163.74C462.01 164.243 461.603 164.65 461.1 164.65C460.997 164.649 460.895 164.63 460.798 164.594C461.201 164.096 461.201 163.384 460.798 162.886ZM460.418 163.145C460.721 163.484 460.721 163.997 460.418 164.336C460.114 163.997 460.114 163.484 460.418 163.145ZM459.735 162.83C459.839 162.831 459.941 162.85 460.037 162.886C459.635 163.384 459.635 164.096 460.037 164.594C459.941 164.63 459.839 164.649 459.735 164.65C459.233 164.65 458.826 164.243 458.826 163.74C458.826 163.238 459.233 162.83 459.735 162.83Z" fill="white" fill-opacity="0.7"/>
<path d="M461.1 162.325C460.861 162.326 460.626 162.387 460.418 162.503C459.746 162.13 458.897 162.362 458.509 163.029L458.509 163.029C458.117 163.705 458.346 164.571 459.022 164.963L459.022 164.963C459.453 165.214 459.983 165.219 460.418 164.978C461.09 165.35 461.939 165.118 462.327 164.451C462.719 163.775 462.49 162.909 461.814 162.517C461.597 162.391 461.351 162.325 461.1 162.325ZM461.1 162.325C461.1 162.325 461.1 162.325 461.1 162.325L461.1 162.375L461.1 162.325C461.1 162.325 461.1 162.325 461.1 162.325ZM461.1 164.6C461.026 164.599 460.952 164.589 460.881 164.569C461.24 164.075 461.24 163.405 460.881 162.912C460.952 162.892 461.026 162.881 461.1 162.88C461.575 162.881 461.96 163.265 461.96 163.74C461.96 164.215 461.575 164.6 461.1 164.6ZM460.418 164.258C460.181 163.954 460.181 163.527 460.418 163.223C460.654 163.527 460.654 163.954 460.418 164.258ZM458.876 163.74C458.876 163.265 459.26 162.881 459.735 162.88C459.81 162.881 459.883 162.892 459.955 162.912C459.596 163.405 459.596 164.075 459.955 164.569C459.883 164.589 459.809 164.599 459.735 164.6C459.26 164.6 458.876 164.215 458.876 163.74Z" stroke="white" stroke-opacity="0.7" stroke-width="0.1"/>
<path d="M460.46 157.062L460.645 157.478L462.815 156.513L462.63 156.098L460.46 157.062Z" fill="white" fill-opacity="0.7"/>
<path d="M460.44 157.017L460.394 157.037L460.414 157.083L460.599 157.498L460.619 157.544L460.665 157.524L462.835 156.559L462.881 156.539L462.86 156.493L462.676 156.077L462.655 156.032L462.61 156.052L460.44 157.017Z" stroke="white" stroke-opacity="0.7" stroke-width="0.1"/>
<path d="M462.146 155.135L459.011 156.581L459.202 156.994L462.336 155.547L462.146 155.135Z" fill="white" fill-opacity="0.7"/>
<path d="M462.191 155.114L462.17 155.068L462.125 155.089L458.99 156.536L458.945 156.557L458.966 156.602L459.157 157.015L459.177 157.06L459.223 157.039L462.357 155.593L462.402 155.572L462.381 155.526L462.191 155.114Z" stroke="white" stroke-opacity="0.7" stroke-width="0.1"/>
<path fill-rule="evenodd" clip-rule="evenodd" d="M464.639 54.1012C465.271 52.9781 465.631 51.6818 465.631 50.3014C465.631 46.0144 462.156 42.5391 457.869 42.5391C453.582 42.5391 450.106 46.0144 450.106 50.3014C450.106 54.5884 453.582 58.0637 457.869 58.0637C458.691 58.0637 459.484 57.9358 460.227 57.6988L456.932 54.4037C455.06 53.9781 453.662 52.303 453.662 50.3014C453.662 47.9779 455.545 46.0944 457.869 46.0944C460.192 46.0944 462.076 47.9779 462.076 50.3014C462.076 50.6795 462.026 51.0459 461.932 51.3945L464.639 54.1012Z" fill="#FC6652"/>
<rect width="9.83226" height="3.19219" rx="1.59609" transform="matrix(-0.707107 -0.707107 -0.707107 0.707107 466.044 57.2537)" fill="#494947"/>
<rect x="490" y="47.0928" width="39.463" height="3.03562" rx="1.51781" fill="#DFDFDF"/>
<rect x="540.847" y="47.0928" width="39.463" height="3.03562" rx="1.51781" fill="#DFDFDF"/>
<rect x="591.693" y="47.0928" width="39.463" height="3.03562" rx="1.51781" fill="#DFDFDF"/>
<g filter="url(#filter3_d_1075_3)">
<g filter="url(#filter4_d_1075_3)">
<rect x="497.159" y="154.856" width="220.841" height="30.3562" rx="7.58904" fill="white"/>
</g>
<circle cx="516.511" cy="169.655" r="11.0041" fill="#F1F1F1"/>
<path d="M518.713 172.602H514.273L513.426 174.651H511.159L515.421 165.089H517.606L521.882 174.651H519.56L518.713 172.602ZM518.016 170.922L516.5 167.261L514.984 170.922H518.016Z" fill="#FC6652"/>
<rect x="538.14" y="161.687" width="169.995" height="3.03562" rx="1.51781" fill="#C7C7C7"/>
<rect x="538.14" y="168.517" width="169.995" height="3.03562" rx="1.51781" fill="#C7C7C7"/>
<rect x="538.14" y="175.347" width="169.995" height="3.03562" rx="1.51781" fill="#C7C7C7"/>
</g>
<g filter="url(#filter5_d_1075_3)">
<g filter="url(#filter6_d_1075_3)">
<rect x="497.159" y="204.186" width="220.841" height="30.3562" rx="7.58904" fill="#FC6652"/>
</g>
<circle cx="516.511" cy="218.984" r="11.0041" fill="#F0968A"/>
<path d="M519.443 219.008C519.99 219.181 520.418 219.472 520.728 219.882C521.037 220.282 521.192 220.779 521.192 221.371C521.192 222.209 520.864 222.855 520.208 223.311C519.562 223.757 518.615 223.98 517.367 223.98H512.422V214.418H517.094C518.26 214.418 519.152 214.641 519.771 215.087C520.4 215.533 520.714 216.139 520.714 216.904C520.714 217.368 520.6 217.783 520.372 218.147C520.154 218.511 519.844 218.798 519.443 219.008ZM514.621 216.084V218.338H516.821C517.367 218.338 517.781 218.243 518.064 218.051C518.346 217.86 518.487 217.578 518.487 217.204C518.487 216.831 518.346 216.553 518.064 216.371C517.781 216.18 517.367 216.084 516.821 216.084H514.621ZM517.203 222.313C517.786 222.313 518.223 222.218 518.515 222.026C518.815 221.835 518.965 221.539 518.965 221.139C518.965 220.346 518.378 219.95 517.203 219.95H514.621V222.313H517.203Z" fill="white"/>
<rect x="538.14" y="211.016" width="169.995" height="3.03562" rx="1.51781" fill="white"/>
<rect x="538.14" y="217.846" width="169.995" height="3.03562" rx="1.51781" fill="white"/>
<rect x="538.14" y="224.676" width="169.995" height="3.03562" rx="1.51781" fill="white"/>
</g>
<g filter="url(#filter7_d_1075_3)">
<rect x="497.159" y="253.515" width="220.841" height="30.3562" rx="7.58904" fill="white"/>
<circle cx="516.511" cy="268.313" r="11.0041" fill="#F1F1F1"/>
<path d="M517.212 273.473C516.237 273.473 515.354 273.263 514.562 272.844C513.778 272.416 513.159 271.829 512.704 271.082C512.258 270.326 512.034 269.475 512.034 268.527C512.034 267.58 512.258 266.733 512.704 265.987C513.159 265.231 513.778 264.643 514.562 264.225C515.354 263.796 516.242 263.582 517.225 263.582C518.054 263.582 518.801 263.728 519.466 264.02C520.14 264.311 520.704 264.73 521.16 265.276L519.739 266.588C519.092 265.841 518.291 265.468 517.335 265.468C516.743 265.468 516.215 265.6 515.75 265.864C515.286 266.119 514.921 266.478 514.657 266.943C514.402 267.407 514.275 267.936 514.275 268.527C514.275 269.119 514.402 269.648 514.657 270.112C514.921 270.577 515.286 270.941 515.75 271.205C516.215 271.46 516.743 271.587 517.335 271.587C518.291 271.587 519.092 271.209 519.739 270.454L521.16 271.765C520.704 272.321 520.14 272.744 519.466 273.035C518.792 273.327 518.04 273.473 517.212 273.473Z" fill="#FC6652"/>
<rect x="538.14" y="260.345" width="169.995" height="3.03562" rx="1.51781" fill="#C7C7C7"/>
<rect x="538.14" y="267.175" width="169.995" height="3.03562" rx="1.51781" fill="#C7C7C7"/>
<rect x="538.14" y="274.005" width="169.995" height="3.03562" rx="1.51781" fill="#C7C7C7"/>
</g>
<path d="M500.964 85.7014C500.392 85.7014 499.882 85.56 499.435 85.2772C498.988 84.9944 498.636 84.5866 498.379 84.0538C498.13 83.5145 498.005 82.8732 498.005 82.13C498.005 81.3868 498.13 80.7488 498.379 80.216C498.636 79.6767 498.988 79.2656 499.435 78.9828C499.882 78.7 500.392 78.5586 500.964 78.5586C501.537 78.5586 502.046 78.7 502.494 78.9828C502.941 79.2656 503.289 79.6767 503.539 80.216C503.796 80.7488 503.924 81.3868 503.924 82.13C503.924 82.8732 503.796 83.5145 503.539 84.0538C503.289 84.5866 502.941 84.9944 502.494 85.2772C502.046 85.56 501.537 85.7014 500.964 85.7014ZM500.964 84.3498C501.385 84.3498 501.714 84.1689 501.951 83.8072C502.194 83.4454 502.316 82.8864 502.316 82.13C502.316 81.3736 502.194 80.8146 501.951 80.4528C501.714 80.0911 501.385 79.9102 500.964 79.9102C500.55 79.9102 500.221 80.0911 499.978 80.4528C499.741 80.8146 499.623 81.3736 499.623 82.13C499.623 82.8864 499.741 83.4454 499.978 83.8072C500.221 84.1689 500.55 84.3498 500.964 84.3498ZM511.025 84.1327H509.9V85.583H508.341V84.1327H504.622V83.0574L507.877 78.677H509.555L506.536 82.8305H508.39V81.538H509.9V82.8305H511.025V84.1327Z" fill="#494947"/>
<rect x="490" y="104.769" width="168.477" height="3.79452" rx="1.89726" fill="#A0A0A0"/>
<rect x="490" y="114.635" width="155.575" height="3.79452" rx="1.89726" fill="#A0A0A0"/>
<rect x="490" y="124.501" width="129.014" height="3.79452" rx="1.89726" fill="#A0A0A0"/>
<rect x="525.238" y="74.4131" width="137.362" height="5.31233" rx="2.65616" fill="#8C8C8C"/>
<rect x="525.238" y="83.5195" width="89.5507" height="5.31233" rx="2.65616" fill="#8C8C8C"/>
<path d="M247 313H268C277.665 313 285.5 305.165 285.5 295.5C285.5 285.835 293.335 278 303 278H365M475.5 313H454.5C444.835 313 437 305.165 437 295.5C437 285.835 429.165 278 419.5 278H357.5" stroke="url(#paint0_linear_1075_3)" stroke-width="3"/>
<path opacity="0.5" d="M270.5 301H287.502C295.327 301 301.671 293.165 301.671 283.5C301.671 273.835 308.014 266 315.839 266H366.036M455.5 301H438.498C430.673 301 424.329 293.165 424.329 283.5C424.329 273.835 417.986 266 410.161 266H359.964" stroke="url(#paint1_linear_1075_3)" stroke-width="2"/>
<path opacity="0.2" d="M279.5 46H294.572C301.509 46 307.132 53.835 307.132 63.5C307.132 73.165 312.756 81 319.693 81H364.191M443.5 46H428.428C421.491 46 415.868 53.835 415.868 63.5C415.868 73.165 410.244 81 403.307 81H358.809" stroke="url(#paint2_linear_1075_3)" stroke-width="2"/>
<path opacity="0.2" d="M282.5 290H297.572C304.509 290 310.132 282.165 310.132 272.5C310.132 262.835 315.756 255 322.693 255H367.191M446.5 290H431.428C424.491 290 418.868 282.165 418.868 272.5C418.868 262.835 413.244 255 406.307 255H361.809" stroke="url(#paint3_linear_1075_3)" stroke-width="2"/>
<g filter="url(#filter8_bd_1075_3)">
<path d="M103 67.5785C103 60.692 108.583 55.1094 115.469 55.1094H292.531C299.417 55.1094 305 60.692 305 67.5785V264.591C305 271.477 299.417 277.06 292.531 277.06H115.469C108.583 277.06 103 271.477 103 264.591V67.5785Z" fill="#FBFBFB"/>
</g>
<g filter="url(#filter9_bd_1075_3)">
<path d="M76 60.7513C76 53.3875 81.9695 47.418 89.3333 47.418H278.667C286.03 47.418 292 53.3875 292 60.7513V271.418C292 278.782 286.03 284.751 278.667 284.751H89.3333C81.9695 284.751 76 278.782 76 271.418V60.7513Z" fill="#FBFBFB"/>
</g>
<g filter="url(#filter10_bd_1075_3)">
<path d="M31 46.1781C31 37.7955 37.7955 31 46.1781 31H261.707C270.089 31 276.885 37.7955 276.885 46.1781V285.992C276.885 294.374 270.089 301.17 261.707 301.17H46.1781C37.7955 301.17 31 294.374 31 285.992V46.1781Z" fill="#FBFBFB"/>
</g>
<circle cx="94.3688" cy="80.7087" r="12.9014" stroke="#CECECE" stroke-width="2.27671"/>
<path d="M107.27 80.7087C107.27 82.8379 106.743 84.9339 105.736 86.81C104.729 88.686 103.274 90.2837 101.499 91.4605C99.7249 92.6373 97.6868 93.3566 95.5668 93.5543C93.4469 93.752 91.3109 93.422 89.3495 92.5936" stroke="#FC6652" stroke-width="2.27671" stroke-linecap="round" stroke-linejoin="round"/>
<path d="M31 65.9092H64.3918V301.169H46.1781C37.7955 301.169 31 294.374 31 285.991V65.9092Z" fill="#A7A7A7"/>
<path d="M53.9519 84.6608C53.9515 84.6605 53.9512 84.6601 53.9509 84.6598L48.4651 79.1742C48.2313 78.9403 47.9204 78.8115 47.5897 78.8115C47.259 78.8115 46.9481 78.9403 46.7142 79.1742L41.2313 84.657C41.2294 84.6589 41.2275 84.6608 41.2257 84.6627C40.7456 85.1456 40.7464 85.9292 41.2281 86.4109C41.4482 86.6311 41.7387 86.7585 42.0495 86.772C42.0623 86.7732 42.075 86.7738 42.0878 86.7738H42.3063V90.8108C42.3063 91.6097 42.9564 92.2597 43.7554 92.2597H45.9016C46.1192 92.2597 46.2956 92.0832 46.2956 91.8657V88.7007C46.2956 88.3361 46.5922 88.0396 46.9568 88.0396H48.2227C48.5872 88.0396 48.8837 88.3361 48.8837 88.7007V91.8657C48.8837 92.0832 49.0601 92.2597 49.2777 92.2597H51.4239C52.223 92.2597 52.873 91.6097 52.873 90.8108V86.7738H53.0757C53.4063 86.7738 53.7172 86.645 53.9512 86.411C54.4334 85.9286 54.4336 85.1436 53.9519 84.6608ZM53.394 85.8539C53.3089 85.9389 53.1959 85.9858 53.0757 85.9858H52.479C52.2614 85.9858 52.085 86.1622 52.085 86.3798V90.8108C52.085 91.1752 51.7885 91.4717 51.4239 91.4717H49.6717V88.7007C49.6717 87.9017 49.0217 87.2516 48.2227 87.2516H46.9568C46.1577 87.2516 45.5076 87.9017 45.5076 88.7007V91.4717H43.7554C43.3909 91.4717 43.0943 91.1752 43.0943 90.8108V86.3798C43.0943 86.1622 42.9179 85.9858 42.7003 85.9858H42.1139C42.1077 85.9854 42.1017 85.9851 42.0954 85.985C41.978 85.983 41.8679 85.9364 41.7854 85.8538C41.61 85.6783 41.61 85.3928 41.7854 85.2172C41.7855 85.2172 41.7855 85.2171 41.7856 85.217L41.7859 85.2167L47.2715 79.7313C47.3565 79.6463 47.4695 79.5995 47.5897 79.5995C47.7099 79.5995 47.8228 79.6463 47.9079 79.7313L53.3922 85.2156C53.3931 85.2164 53.394 85.2172 53.3948 85.2181C53.5693 85.3938 53.569 85.6787 53.394 85.8539Z" fill="white" fill-opacity="0.7"/>
<path d="M54.5255 128.232H40.8652V128.687H54.5255V128.232Z" fill="white" fill-opacity="0.7"/>
<path d="M54.5755 128.232V128.182H54.5255H40.8652H40.8152V128.232V128.687V128.737H40.8652H54.5255H54.5755V128.687V128.232Z" stroke="white" stroke-opacity="0.7" stroke-width="0.1"/>
<path d="M41.7762 127.776H44.0529C44.1787 127.776 44.2806 127.674 44.2806 127.548V123.45C44.2806 123.324 44.1787 123.222 44.0529 123.222H41.7762C41.6505 123.222 41.5486 123.324 41.5486 123.45V127.548C41.5486 127.674 41.6505 127.776 41.7762 127.776ZM42.0039 123.678H43.8253V127.32H42.0039V123.678Z" fill="white" fill-opacity="0.7"/>
<path d="M41.7762 127.826H44.0529C44.2063 127.826 44.3306 127.702 44.3306 127.548V123.45C44.3306 123.297 44.2063 123.172 44.0529 123.172H41.7762C41.6229 123.172 41.4986 123.297 41.4986 123.45V127.548C41.4986 127.702 41.6229 127.826 41.7762 127.826ZM42.0539 123.728H43.7753V127.27H42.0539V123.728Z" stroke="white" stroke-opacity="0.7" stroke-width="0.1"/>
<path d="M48.1513 127.776H50.428C50.5538 127.776 50.6557 127.674 50.6557 127.548V120.718C50.6557 120.593 50.5538 120.491 50.428 120.491H48.1513C48.0256 120.491 47.9236 120.593 47.9236 120.718V127.548C47.9236 127.674 48.0256 127.776 48.1513 127.776ZM48.379 120.946H50.2004V127.321H48.379V120.946Z" fill="white" fill-opacity="0.7"/>
<path d="M48.1513 127.826H50.428C50.5814 127.826 50.7057 127.702 50.7057 127.548V120.718C50.7057 120.565 50.5814 120.441 50.428 120.441H48.1513C47.998 120.441 47.8736 120.565 47.8736 120.718V127.548C47.8736 127.702 47.998 127.826 48.1513 127.826ZM48.429 120.996H50.1504V127.271H48.429V120.996Z" stroke="white" stroke-opacity="0.7" stroke-width="0.1"/>
<path d="M44.963 127.776H47.2397C47.3655 127.776 47.4674 127.674 47.4674 127.548V117.986C47.4674 117.86 47.3655 117.758 47.2397 117.758H44.963C44.8373 117.758 44.7354 117.86 44.7354 117.986V127.548C44.7354 127.674 44.8373 127.776 44.963 127.776ZM45.1907 118.214H47.0121V127.32H45.1907V118.214Z" fill="white" fill-opacity="0.7"/>
<path d="M44.963 127.826H47.2397C47.3931 127.826 47.5174 127.701 47.5174 127.548V117.986C47.5174 117.833 47.3931 117.708 47.2397 117.708H44.963C44.8097 117.708 44.6854 117.833 44.6854 117.986V127.548C44.6854 127.701 44.8097 127.826 44.963 127.826ZM45.2407 118.264H46.9621V127.27H45.2407V118.264Z" stroke="white" stroke-opacity="0.7" stroke-width="0.1"/>
<path d="M51.3381 127.776H53.6148C53.7406 127.776 53.8425 127.674 53.8425 127.548V115.254C53.8425 115.128 53.7406 115.026 53.6148 115.026H51.3381C51.2124 115.026 51.1104 115.128 51.1104 115.254V127.548C51.1104 127.674 51.2124 127.776 51.3381 127.776ZM51.5658 115.482H53.3872V127.321H51.5658V115.482Z" fill="white" fill-opacity="0.7"/>
<path d="M51.3381 127.826H53.6148C53.7682 127.826 53.8925 127.702 53.8925 127.548V115.254C53.8925 115.101 53.7682 114.976 53.6148 114.976H51.3381C51.1848 114.976 51.0604 115.101 51.0604 115.254V127.548C51.0604 127.702 51.1848 127.826 51.3381 127.826ZM51.6158 115.532H53.3372V127.271H51.6158V115.532Z" stroke="white" stroke-opacity="0.7" stroke-width="0.1"/>
<path d="M51.0593 194.475V193.272C51.0593 191.517 49.8926 190.029 48.294 189.543V188.998C48.294 188.375 47.7865 187.867 47.1628 187.867C46.539 187.867 46.0315 188.375 46.0315 188.998V189.543C44.433 190.029 43.2663 191.517 43.2663 193.272V194.475C43.2663 196.017 42.6786 197.479 41.6115 198.592C41.5069 198.701 41.4775 198.862 41.5368 199.001C41.5961 199.14 41.7326 199.23 41.8837 199.23H45.3153C45.4905 200.089 46.2523 200.738 47.1628 200.738C48.0733 200.738 48.8351 200.089 49.0102 199.23H52.4419C52.593 199.23 52.7295 199.14 52.7887 199.001C52.848 198.862 52.8186 198.701 52.7141 198.592C51.647 197.479 51.0593 196.017 51.0593 194.475ZM46.7857 188.998C46.7857 188.791 46.9549 188.621 47.1628 188.621C47.3707 188.621 47.5399 188.791 47.5399 188.998V189.394C47.4158 189.382 47.29 189.376 47.1628 189.376C47.0356 189.376 46.9098 189.382 46.7857 189.394V188.998ZM47.1628 199.984C46.6712 199.984 46.2521 199.669 46.0964 199.23H48.2292C48.0735 199.669 47.6544 199.984 47.1628 199.984ZM42.6964 198.476C43.5552 197.325 44.0205 195.931 44.0205 194.475V193.272C44.0205 191.539 45.4301 190.13 47.1628 190.13C48.8955 190.13 50.3051 191.539 50.3051 193.272V194.475C50.3051 195.931 50.7704 197.325 51.6292 198.476H42.6964Z" fill="white" fill-opacity="0.7"/>
<path d="M52.0641 193.272C52.0641 193.48 52.2329 193.649 52.4411 193.649C52.6494 193.649 52.8182 193.48 52.8182 193.272C52.8182 191.761 52.2299 190.341 51.1616 189.272C51.0143 189.125 50.7756 189.125 50.6283 189.272C50.481 189.42 50.481 189.658 50.6283 189.806C51.5542 190.731 52.0641 191.962 52.0641 193.272Z" fill="white" fill-opacity="0.7"/>
<path d="M41.8829 193.649C42.0912 193.649 42.26 193.48 42.26 193.272C42.26 191.962 42.7699 190.731 43.6958 189.806C43.843 189.658 43.843 189.42 43.6958 189.272C43.5485 189.125 43.3098 189.125 43.1625 189.272C42.0942 190.341 41.5059 191.761 41.5059 193.272C41.5059 193.48 41.6747 193.649 41.8829 193.649Z" fill="white" fill-opacity="0.7"/>
<path d="M54.4312 156.354L52.905 152.386C52.6158 151.636 51.7733 151.263 51.0232 151.552C51.0123 151.556 51.0014 151.56 50.9906 151.565L43.364 154.726C42.6378 155.024 42.2809 155.846 42.5591 156.58L42.7688 157.14H42.2877C41.503 157.141 40.8671 157.777 40.8662 158.562V163.679C40.8671 164.464 41.503 165.1 42.2877 165.101H51.9541C52.7388 165.1 53.3747 164.464 53.3756 163.679V158.562C53.3752 158.484 53.3683 158.407 53.3551 158.331L53.6192 158.224C54.3519 157.924 54.712 157.095 54.4312 156.354ZM42.2877 157.595H51.9541C52.4646 157.596 52.8857 157.995 52.915 158.505H41.3268C41.3561 157.995 41.7772 157.596 42.2877 157.595ZM44.5738 156.225L46.094 155.464L46.4065 156.246L44.8863 157.006L44.5738 156.225ZM52.9207 163.679C52.9201 164.213 52.4877 164.645 51.9541 164.646H42.2877C41.7541 164.645 41.3217 164.213 41.3211 163.679V160.779H52.9207V163.679ZM52.9207 160.324H41.3211V158.96H52.9207V160.324ZM53.4486 157.804L53.2109 157.9C52.9654 157.433 52.4816 157.141 51.9541 157.14H45.6362L46.7973 156.559C46.9031 156.507 46.9508 156.381 46.9069 156.271L46.4245 155.066C46.3778 154.949 46.2455 154.893 46.1289 154.939C46.123 154.942 46.1172 154.944 46.1115 154.947L44.183 155.912C44.0773 155.965 44.0297 156.09 44.0736 156.2L44.4498 157.14H43.2544L42.9851 156.422C42.7942 155.917 43.0394 155.353 43.5382 155.148L51.1646 151.987C51.6745 151.775 52.2592 152.017 52.4706 152.527C52.4739 152.535 52.4771 152.543 52.4802 152.551L54.0063 156.519C54.1994 157.028 53.9521 157.598 53.4486 157.804Z" fill="white" fill-opacity="0.7"/>
<path d="M51.9541 157.09H51.9542C52.4851 157.091 52.9733 157.377 53.2335 157.837L53.4296 157.758C53.4297 157.758 53.4297 157.758 53.4298 157.758C53.9081 157.562 54.143 157.02 53.9596 156.537L52.4335 152.569L52.4335 152.569C52.4306 152.561 52.4276 152.554 52.4244 152.546L52.4244 152.546C52.2236 152.062 51.6681 151.832 51.1838 152.033L51.1646 151.987L51.1838 152.033L43.5574 155.194L43.5572 155.194C43.0834 155.389 42.8505 155.925 43.0318 156.404L43.0319 156.404L43.289 157.09H44.376L44.0272 156.218C43.9736 156.084 44.0316 155.932 44.1607 155.867L44.1607 155.867L46.0891 154.902L51.9541 157.09ZM51.9541 157.09H45.8479M51.9541 157.09L45.7479 157.14L45.8479 157.09M46.9533 156.253L46.9533 156.253C47.0069 156.387 46.9487 156.54 46.8196 156.604M46.9533 156.253L45.7361 157.09H45.8479M46.9533 156.253L46.4709 155.047M46.9533 156.253L46.1102 154.893M46.8196 156.604L46.7973 156.559L46.8196 156.604L46.8196 156.604ZM46.8196 156.604L45.8479 157.09M46.1102 154.893L46.1103 154.893C46.2526 154.836 46.414 154.905 46.4709 155.047M46.1102 154.893C46.1032 154.896 46.0961 154.899 46.0892 154.902L46.1102 154.893ZM46.4709 155.047L46.4245 155.066L46.4709 155.047L46.4709 155.047ZM51.9539 157.645H42.2879L42.2877 157.645M51.9539 157.645L42.2877 157.595V157.645M51.9539 157.645C51.954 157.645 51.954 157.645 51.9541 157.645C52.4203 157.646 52.8078 157.997 52.8606 158.455M51.9539 157.645L51.9541 157.595L52.8606 158.455M42.2877 157.645C41.8215 157.646 41.434 157.997 41.3813 158.455M42.2877 157.645L41.3813 158.455M41.3813 158.455H52.8606M41.3813 158.455H52.8606M51.954 164.596C52.4601 164.595 52.8701 164.185 52.8707 163.679V160.829H41.3711L41.3711 163.679L41.3711 163.679M51.954 164.596L41.3211 163.679H41.3711M51.954 164.596H42.2878M51.954 164.596H42.2878M41.3711 163.679C41.3717 164.185 41.7818 164.595 42.2878 164.596M41.3711 163.679L42.2878 164.596M54.4779 156.337L54.4778 156.337L52.9517 152.369L52.9517 152.369C52.6526 151.593 51.7811 151.206 51.0052 151.505L51.0052 151.505C50.994 151.51 50.9827 151.514 50.9715 151.519L50.9715 151.519L43.345 154.68C43.345 154.68 43.345 154.68 43.3449 154.68C42.5938 154.988 42.2246 155.839 42.5123 156.598C42.5123 156.598 42.5123 156.598 42.5123 156.598L42.6967 157.09H42.2877H42.2877C41.4754 157.091 40.8171 157.749 40.8162 158.561V158.562L40.8162 163.679L40.8162 163.679C40.8171 164.491 41.4754 165.15 42.2877 165.151H42.2877H51.9541H51.9541C52.7664 165.15 53.4247 164.491 53.4256 163.679V163.679L53.4256 158.562L53.4256 158.561C53.4252 158.495 53.4202 158.429 53.4108 158.363L53.638 158.271L53.6382 158.271C54.3959 157.96 54.7683 157.102 54.4779 156.337ZM44.9125 156.937L44.6373 156.249L46.0678 155.534L46.343 156.222L44.9125 156.937ZM52.8707 160.274H41.3711V159.01H52.8707V160.274Z" stroke="white" stroke-opacity="0.7" stroke-width="0.1"/>
<path d="M49.0467 164.006C49.4705 164.252 49.9939 164.252 50.4178 164.006C51.0694 164.385 51.9047 164.163 52.2833 163.512C52.6619 162.86 52.4405 162.025 51.7888 161.646C51.5797 161.525 51.342 161.461 51.1001 161.461C50.8603 161.462 50.6249 161.525 50.4178 161.646C49.7661 161.267 48.9309 161.489 48.5522 162.141C48.1736 162.792 48.395 163.627 49.0467 164.006ZM50.7981 161.972C50.8948 161.936 50.997 161.917 51.1001 161.916C51.6025 161.916 52.0099 162.324 52.0099 162.826C52.0099 163.329 51.6025 163.736 51.1001 163.736C50.997 163.735 50.8948 163.716 50.7981 163.68C51.2007 163.182 51.2007 162.47 50.7981 161.972ZM50.4178 162.231C50.721 162.57 50.721 163.082 50.4178 163.422C50.1145 163.082 50.1145 162.57 50.4178 162.231ZM49.7354 161.916C49.8386 161.917 49.9407 161.936 50.0375 161.972C49.6348 162.47 49.6348 163.182 50.0375 163.68C49.9407 163.716 49.8386 163.735 49.7354 163.736C49.233 163.736 48.8257 163.329 48.8257 162.826C48.8257 162.324 49.233 161.916 49.7354 161.916Z" fill="white" fill-opacity="0.7"/>
<path d="M51.1 161.411C50.8611 161.412 50.6263 161.473 50.4177 161.589C49.746 161.216 48.8966 161.448 48.509 162.115L48.509 162.115C48.1165 162.791 48.346 163.657 49.0216 164.049L49.0216 164.049C49.4526 164.3 49.983 164.304 50.4178 164.064C51.0895 164.436 51.9389 164.204 52.3265 163.537C52.719 162.861 52.4895 161.995 51.8139 161.603C51.5971 161.477 51.3508 161.411 51.1 161.411ZM51.1 161.411C51.1 161.411 51.1001 161.411 51.1001 161.411L51.1001 161.461L51.1 161.411C51.1 161.411 51.1 161.411 51.1 161.411ZM51.1004 163.686C51.026 163.685 50.9522 163.675 50.8808 163.655C51.2398 163.161 51.2398 162.491 50.8808 161.998C50.9522 161.978 51.026 161.967 51.1004 161.966C51.5751 161.966 51.9599 162.351 51.9599 162.826C51.9599 163.301 51.5751 163.686 51.1004 163.686ZM50.4178 163.344C50.1812 163.04 50.1812 162.613 50.4178 162.309C50.6544 162.613 50.6544 163.04 50.4178 163.344ZM48.8757 162.826C48.8757 162.351 49.2605 161.966 49.7352 161.966C49.8095 161.967 49.8833 161.978 49.9547 161.998C49.5957 162.491 49.5957 163.161 49.9547 163.655C49.8833 163.675 49.8095 163.685 49.7352 163.686C49.2604 163.686 48.8757 163.301 48.8757 162.826Z" stroke="white" stroke-opacity="0.7" stroke-width="0.1"/>
<path d="M50.46 156.148L50.6448 156.564L52.8146 155.599L52.6299 155.184L50.46 156.148Z" fill="white" fill-opacity="0.7"/>
<path d="M50.4397 156.102L50.394 156.123L50.4143 156.168L50.5991 156.584L50.6194 156.63L50.6651 156.61L52.8349 155.645L52.8806 155.625L52.8603 155.579L52.6755 155.163L52.6552 155.118L52.6095 155.138L50.4397 156.102Z" stroke="white" stroke-opacity="0.7" stroke-width="0.1"/>
<path d="M52.1455 154.221L49.0114 155.667L49.2019 156.08L52.3361 154.633L52.1455 154.221Z" fill="white" fill-opacity="0.7"/>
<path d="M52.1909 154.2L52.17 154.154L52.1246 154.175L48.9904 155.622L48.945 155.643L48.966 155.688L49.1565 156.101L49.1775 156.146L49.2229 156.125L52.357 154.679L52.4024 154.658L52.3815 154.612L52.1909 154.2Z" stroke="white" stroke-opacity="0.7" stroke-width="0.1"/>
<g filter="url(#filter11_d_1075_3)">
<g filter="url(#filter12_d_1075_3)">
<rect x="87.1592" y="153.942" width="220.841" height="30.3562" rx="7.58904" fill="white"/>
</g>
<circle cx="106.511" cy="168.741" r="11.0041" fill="#F1F1F1"/>
<path d="M101.159 173.737L105.421 164.175H107.606L111.882 173.737H109.56L106.063 165.295H106.937L103.426 173.737H101.159ZM103.29 171.688L103.877 170.008H108.795L109.396 171.688H103.29Z" fill="#FC6652"/>
<rect x="128.14" y="160.772" width="169.995" height="3.03562" rx="1.51781" fill="#C7C7C7"/>
<rect x="128.14" y="167.603" width="169.995" height="3.03562" rx="1.51781" fill="#C7C7C7"/>
<rect x="128.14" y="174.433" width="169.995" height="3.03562" rx="1.51781" fill="#C7C7C7"/>
</g>
<g filter="url(#filter13_d_1075_3)">
<g filter="url(#filter14_d_1075_3)">
<rect x="87.1592" y="203.271" width="220.841" height="30.3562" rx="7.58904" fill="#FC6652"/>
</g>
<circle cx="106.511" cy="218.07" r="11.0041" fill="#F0968A"/>
<path d="M102.422 223.066V213.504H107.094C108.296 213.504 109.198 213.731 109.799 214.187C110.409 214.642 110.714 215.243 110.714 215.99C110.714 216.491 110.591 216.928 110.345 217.301C110.099 217.665 109.762 217.948 109.334 218.148C108.906 218.348 108.414 218.449 107.859 218.449L108.118 217.889C108.72 217.889 109.252 217.989 109.717 218.189C110.181 218.38 110.541 218.667 110.796 219.05C111.06 219.432 111.192 219.901 111.192 220.457C111.192 221.276 110.869 221.918 110.222 222.383C109.576 222.838 108.624 223.066 107.367 223.066H102.422ZM104.621 221.399H107.203C107.777 221.399 108.21 221.308 108.501 221.126C108.801 220.935 108.952 220.634 108.952 220.224C108.952 219.824 108.801 219.528 108.501 219.337C108.21 219.136 107.777 219.036 107.203 219.036H104.457V217.424H106.821C107.358 217.424 107.768 217.333 108.05 217.151C108.342 216.96 108.487 216.673 108.487 216.29C108.487 215.917 108.342 215.639 108.05 215.457C107.768 215.266 107.358 215.17 106.821 215.17H104.621V221.399Z" fill="white"/>
<rect x="128.14" y="210.102" width="169.995" height="3.03562" rx="1.51781" fill="white"/>
<rect x="128.14" y="216.932" width="169.995" height="3.03562" rx="1.51781" fill="white"/>
<rect x="128.14" y="223.762" width="169.995" height="3.03562" rx="1.51781" fill="white"/>
</g>
<g filter="url(#filter15_d_1075_3)">
<g filter="url(#filter16_d_1075_3)">
<rect x="87.1592" y="252.601" width="220.841" height="30.3562" rx="7.58904" fill="white"/>
</g>
<circle cx="106.511" cy="267.399" r="11.0041" fill="#F1F1F1"/>
<path d="M107.212 272.558C106.474 272.558 105.787 272.44 105.149 272.203C104.521 271.957 103.974 271.611 103.51 271.165C103.045 270.719 102.681 270.195 102.417 269.594C102.162 268.993 102.035 268.333 102.035 267.613C102.035 266.894 102.162 266.234 102.417 265.633C102.681 265.032 103.045 264.508 103.51 264.062C103.983 263.616 104.534 263.274 105.163 263.037C105.791 262.791 106.479 262.668 107.225 262.668C108.054 262.668 108.801 262.814 109.466 263.106C110.14 263.388 110.704 263.807 111.16 264.362L109.739 265.674C109.411 265.3 109.047 265.023 108.646 264.84C108.245 264.649 107.808 264.554 107.335 264.554C106.888 264.554 106.479 264.626 106.105 264.772C105.732 264.918 105.409 265.127 105.135 265.4C104.862 265.674 104.648 265.997 104.493 266.37C104.348 266.744 104.275 267.158 104.275 267.613C104.275 268.069 104.348 268.483 104.493 268.857C104.648 269.23 104.862 269.553 105.135 269.826C105.409 270.1 105.732 270.309 106.105 270.455C106.479 270.6 106.888 270.673 107.335 270.673C107.808 270.673 108.245 270.582 108.646 270.4C109.047 270.209 109.411 269.922 109.739 269.54L111.16 270.851C110.704 271.406 110.14 271.83 109.466 272.121C108.801 272.413 108.05 272.558 107.212 272.558Z" fill="#FC6652"/>
<rect x="128.14" y="259.431" width="169.995" height="3.03562" rx="1.51781" fill="#C7C7C7"/>
<rect x="128.14" y="266.261" width="169.995" height="3.03562" rx="1.51781" fill="#C7C7C7"/>
<rect x="128.14" y="273.091" width="169.995" height="3.03562" rx="1.51781" fill="#C7C7C7"/>
</g>
<path d="M90.9643 84.7873C90.3987 84.7873 89.8923 84.6492 89.445 84.373C88.9978 84.0902 88.6459 83.6824 88.3894 83.1496C88.1329 82.6169 88.0046 81.9723 88.0046 81.2159C88.0046 80.4596 88.1329 79.815 88.3894 79.2822C88.6459 78.7495 88.9978 78.345 89.445 78.0688C89.8923 77.7859 90.3987 77.6445 90.9643 77.6445C91.5365 77.6445 92.043 77.7859 92.4837 78.0688C92.9309 78.345 93.2828 78.7495 93.5393 79.2822C93.7958 79.815 93.9241 80.4596 93.9241 81.2159C93.9241 81.9723 93.7958 82.6169 93.5393 83.1496C93.2828 83.6824 92.9309 84.0902 92.4837 84.373C92.043 84.6492 91.5365 84.7873 90.9643 84.7873ZM90.9643 83.4357C91.234 83.4357 91.4675 83.3601 91.6648 83.2088C91.8687 83.0575 92.0265 82.8175 92.1384 82.4886C92.2567 82.1598 92.3159 81.7355 92.3159 81.2159C92.3159 80.6963 92.2567 80.2721 92.1384 79.9432C92.0265 79.6144 91.8687 79.3743 91.6648 79.223C91.4675 79.0718 91.234 78.9961 90.9643 78.9961C90.7012 78.9961 90.4678 79.0718 90.2639 79.223C90.0666 79.3743 89.9087 79.6144 89.7903 79.9432C89.6785 80.2721 89.6226 80.6963 89.6226 81.2159C89.6226 81.7355 89.6785 82.1598 89.7903 82.4886C89.9087 82.8175 90.0666 83.0575 90.2639 83.2088C90.4678 83.3601 90.7012 83.4357 90.9643 83.4357ZM94.6217 83.2187V82.1433L97.8774 77.7629H99.5546L96.3679 82.1433L95.5885 81.9164H101.025V83.2187H94.6217ZM98.3411 84.6689V83.2187L98.3904 81.9164V80.624H99.8999V84.6689H98.3411Z" fill="#494947"/>
<rect x="80" y="103.854" width="168.477" height="3.79452" rx="1.89726" fill="#C2C2C2"/>
<rect x="80" y="113.721" width="155.575" height="3.79452" rx="1.89726" fill="#C2C2C2"/>
<rect x="80" y="123.587" width="129.014" height="3.79452" rx="1.89726" fill="#C2C2C2"/>
<rect x="115.238" y="73.499" width="137.362" height="5.31233" rx="2.65616" fill="#8C8C8C"/>
<rect x="115.238" y="82.6055" width="89.5507" height="5.31233" rx="2.65616" fill="#8C8C8C"/>
<path d="M84.104 55V44.776H80.072V42.4H91.052V44.776H87.02V55H84.104ZM97.8708 55V53.11L97.6908 52.696V49.312C97.6908 48.712 97.5048 48.244 97.1328 47.908C96.7728 47.572 96.2148 47.404 95.4588 47.404C94.9428 47.404 94.4328 47.488 93.9288 47.656C93.4368 47.812 93.0168 48.028 92.6688 48.304L91.6608 46.342C92.1888 45.97 92.8248 45.682 93.5688 45.478C94.3128 45.274 95.0688 45.172 95.8368 45.172C97.3128 45.172 98.4588 45.52 99.2748 46.216C100.091 46.912 100.499 47.998 100.499 49.474V55H97.8708ZM94.9188 55.144C94.1628 55.144 93.5148 55.018 92.9748 54.766C92.4348 54.502 92.0208 54.148 91.7328 53.704C91.4448 53.26 91.3008 52.762 91.3008 52.21C91.3008 51.634 91.4388 51.13 91.7148 50.698C92.0028 50.266 92.4528 49.93 93.0648 49.69C93.6768 49.438 94.4748 49.312 95.4588 49.312H98.0328V50.95H95.7648C95.1048 50.95 94.6488 51.058 94.3968 51.274C94.1568 51.49 94.0368 51.76 94.0368 52.084C94.0368 52.444 94.1748 52.732 94.4508 52.948C94.7388 53.152 95.1288 53.254 95.6208 53.254C96.0888 53.254 96.5088 53.146 96.8808 52.93C97.2528 52.702 97.5228 52.372 97.6908 51.94L98.1228 53.236C97.9188 53.86 97.5468 54.334 97.0068 54.658C96.4668 54.982 95.7708 55.144 94.9188 55.144ZM103.04 55V41.644H105.848V55H103.04ZM113.26 55.144C112.156 55.144 111.184 54.928 110.344 54.496C109.516 54.064 108.874 53.476 108.418 52.732C107.962 51.976 107.734 51.118 107.734 50.158C107.734 49.186 107.956 48.328 108.4 47.584C108.856 46.828 109.474 46.24 110.254 45.82C111.034 45.388 111.916 45.172 112.9 45.172C113.848 45.172 114.7 45.376 115.456 45.784C116.224 46.18 116.83 46.756 117.274 47.512C117.718 48.256 117.94 49.15 117.94 50.194C117.94 50.302 117.934 50.428 117.922 50.572C117.91 50.704 117.898 50.83 117.886 50.95H110.02V49.312H116.41L115.33 49.798C115.33 49.294 115.228 48.856 115.024 48.484C114.82 48.112 114.538 47.824 114.178 47.62C113.818 47.404 113.398 47.296 112.918 47.296C112.438 47.296 112.012 47.404 111.64 47.62C111.28 47.824 110.998 48.118 110.794 48.502C110.59 48.874 110.488 49.318 110.488 49.834V50.266C110.488 50.794 110.602 51.262 110.83 51.67C111.07 52.066 111.4 52.372 111.82 52.588C112.252 52.792 112.756 52.894 113.332 52.894C113.848 52.894 114.298 52.816 114.682 52.66C115.078 52.504 115.438 52.27 115.762 51.958L117.256 53.578C116.812 54.082 116.254 54.472 115.582 54.748C114.91 55.012 114.136 55.144 113.26 55.144ZM125.696 45.172C126.464 45.172 127.148 45.328 127.748 45.64C128.36 45.94 128.84 46.408 129.188 47.044C129.536 47.668 129.71 48.472 129.71 49.456V55H126.902V49.888C126.902 49.108 126.728 48.532 126.38 48.16C126.044 47.788 125.564 47.602 124.94 47.602C124.496 47.602 124.094 47.698 123.734 47.89C123.386 48.07 123.11 48.352 122.906 48.736C122.714 49.12 122.618 49.612 122.618 50.212V55H119.81V45.316H122.492V47.998L121.988 47.188C122.336 46.54 122.834 46.042 123.482 45.694C124.13 45.346 124.868 45.172 125.696 45.172ZM136.215 55.144C135.075 55.144 134.187 54.856 133.551 54.28C132.915 53.692 132.597 52.822 132.597 51.67V43.174H135.405V51.634C135.405 52.042 135.513 52.36 135.729 52.588C135.945 52.804 136.239 52.912 136.611 52.912C137.055 52.912 137.433 52.792 137.745 52.552L138.501 54.532C138.213 54.736 137.865 54.892 137.457 55C137.061 55.096 136.647 55.144 136.215 55.144ZM131.103 47.692V45.532H137.817V47.692H131.103Z" fill="#494947"/>
<path d="M151.475 55.216C150.491 55.216 149.573 55.054 148.721 54.73C147.881 54.406 147.149 53.95 146.525 53.362C145.913 52.774 145.433 52.084 145.085 51.292C144.749 50.5 144.581 49.636 144.581 48.7C144.581 47.764 144.749 46.9 145.085 46.108C145.433 45.316 145.919 44.626 146.543 44.038C147.167 43.45 147.899 42.994 148.739 42.67C149.579 42.346 150.491 42.184 151.475 42.184C152.471 42.184 153.383 42.346 154.211 42.67C155.051 42.994 155.777 43.45 156.389 44.038C157.013 44.614 157.499 45.298 157.847 46.09C158.195 46.882 158.369 47.752 158.369 48.7C158.369 49.636 158.195 50.506 157.847 51.31C157.499 52.102 157.013 52.792 156.389 53.38C155.777 53.956 155.051 54.406 154.211 54.73C153.383 55.054 152.471 55.216 151.475 55.216ZM155.597 57.898C155.105 57.898 154.637 57.844 154.193 57.736C153.761 57.628 153.329 57.454 152.897 57.214C152.477 56.974 152.033 56.65 151.565 56.242C151.109 55.834 150.611 55.33 150.071 54.73L153.131 53.956C153.455 54.4 153.755 54.754 154.031 55.018C154.307 55.282 154.571 55.468 154.823 55.576C155.087 55.684 155.363 55.738 155.651 55.738C156.419 55.738 157.103 55.426 157.703 54.802L158.999 56.35C158.147 57.382 157.013 57.898 155.597 57.898ZM151.475 52.732C152.039 52.732 152.555 52.636 153.023 52.444C153.503 52.252 153.923 51.976 154.283 51.616C154.643 51.256 154.919 50.83 155.111 50.338C155.315 49.834 155.417 49.288 155.417 48.7C155.417 48.1 155.315 47.554 155.111 47.062C154.919 46.57 154.643 46.144 154.283 45.784C153.923 45.424 153.503 45.148 153.023 44.956C152.555 44.764 152.039 44.668 151.475 44.668C150.911 44.668 150.389 44.764 149.909 44.956C149.429 45.148 149.009 45.424 148.649 45.784C148.301 46.144 148.025 46.57 147.821 47.062C147.629 47.554 147.533 48.1 147.533 48.7C147.533 49.288 147.629 49.834 147.821 50.338C148.025 50.83 148.301 51.256 148.649 51.616C149.009 51.976 149.429 52.252 149.909 52.444C150.389 52.636 150.911 52.732 151.475 52.732Z" fill="#FC6652"/>
<circle cx="48" cy="49" r="6" fill="#FC6652"/>
<path opacity="0.5" d="M267.5 35H284.502C292.327 35 298.671 42.835 298.671 52.5C298.671 62.165 305.014 70 312.839 70H363.036M452.5 35H435.498C427.673 35 421.329 42.835 421.329 52.5C421.329 62.165 414.986 70 407.161 70H356.964" stroke="url(#paint4_linear_1075_3)" stroke-width="2"/>
<path d="M244 23H265C274.665 23 282.5 30.835 282.5 40.5C282.5 50.165 290.335 58 300 58H362M472.5 23H451.5C441.835 23 434 30.835 434 40.5C434 50.165 426.165 58 416.5 58H354.5" stroke="url(#paint5_linear_1075_3)" stroke-width="3"/>
<path d="M385.909 156.455H349.139L356.024 149.569C356.84 148.753 356.84 147.429 356.024 146.612C355.207 145.796 353.884 145.796 353.067 146.612L342.612 157.067C341.796 157.883 341.796 159.207 342.612 160.024L353.067 170.478C353.475 170.887 354.01 171.091 354.546 171.091C355.081 171.091 355.616 170.887 356.024 170.478C356.84 169.662 356.84 168.338 356.024 167.521L349.139 160.636H385.909C387.064 160.636 388 159.7 388 158.546C388 157.391 387.064 156.455 385.909 156.455Z" fill="url(#paint6_linear_1075_3)"/>
<path d="M376.933 167.522C376.117 166.705 374.793 166.705 373.976 167.522C373.159 168.338 373.159 169.662 373.976 170.478L380.861 177.364H344.091C342.936 177.364 342 178.3 342 179.455C342 180.609 342.936 181.545 344.091 181.545H380.861L373.976 188.431C373.16 189.247 373.16 190.571 373.976 191.388C374.384 191.796 374.919 192 375.455 192C375.99 192 376.525 191.796 376.933 191.388L387.387 180.933C388.204 180.117 388.204 178.793 387.387 177.976L376.933 167.522Z" fill="url(#paint7_linear_1075_3)"/>
<defs>
<filter id="filter0_bd_1075_3" x="395.393" y="30.3923" width="248.528" height="268.213" filterUnits="userSpaceOnUse" color-interpolation-filters="sRGB">
<feFlood flood-opacity="0" result="BackgroundImageFix"/>
<feGaussianBlur in="BackgroundImageFix" stdDeviation="1.23034"/>
<feComposite in2="SourceAlpha" operator="in" result="effect1_backgroundBlur_1075_3"/>
<feColorMatrix in="SourceAlpha" type="matrix" values="0 0 0 0 0 0 0 0 0 0 0 0 0 0 0 0 0 0 127 0" result="hardAlpha"/>
<feOffset/>
<feGaussianBlur stdDeviation="12.3034"/>
<feColorMatrix type="matrix" values="0 0 0 0 0.420833 0 0 0 0 0.346206 0 0 0 0 0.322639 0 0 0 0.46 0"/>
<feBlend mode="normal" in2="effect1_backgroundBlur_1075_3" result="effect2_dropShadow_1075_3"/>
<feBlend mode="normal" in="SourceGraphic" in2="effect2_dropShadow_1075_3" result="shape"/>
</filter>
<filter id="filter1_bd_1075_3" x="404.483" y="19.4822" width="267.82" height="289.034" filterUnits="userSpaceOnUse" color-interpolation-filters="sRGB">
<feFlood flood-opacity="0" result="BackgroundImageFix"/>
<feGaussianBlur in="BackgroundImageFix" stdDeviation="1.32584"/>
<feComposite in2="SourceAlpha" operator="in" result="effect1_backgroundBlur_1075_3"/>
<feColorMatrix in="SourceAlpha" type="matrix" values="0 0 0 0 0 0 0 0 0 0 0 0 0 0 0 0 0 0 127 0" result="hardAlpha"/>
<feOffset/>
<feGaussianBlur stdDeviation="13.2584"/>
<feColorMatrix type="matrix" values="0 0 0 0 0.420833 0 0 0 0 0.346206 0 0 0 0 0.322639 0 0 0 0.46 0"/>
<feBlend mode="normal" in2="effect1_backgroundBlur_1075_3" result="effect2_dropShadow_1075_3"/>
<feBlend mode="normal" in="SourceGraphic" in2="effect2_dropShadow_1075_3" result="shape"/>
</filter>
<filter id="filter2_bd_1075_3" x="410.644" y="1.5579" width="306.597" height="330.882" filterUnits="userSpaceOnUse" color-interpolation-filters="sRGB">
<feFlood flood-opacity="0" result="BackgroundImageFix"/>
<feGaussianBlur in="BackgroundImageFix" stdDeviation="1.51781"/>
<feComposite in2="SourceAlpha" operator="in" result="effect1_backgroundBlur_1075_3"/>
<feColorMatrix in="SourceAlpha" type="matrix" values="0 0 0 0 0 0 0 0 0 0 0 0 0 0 0 0 0 0 127 0" result="hardAlpha"/>
<feOffset/>
<feGaussianBlur stdDeviation="15.1781"/>
<feColorMatrix type="matrix" values="0 0 0 0 0.420833 0 0 0 0 0.346206 0 0 0 0 0.322639 0 0 0 0.46 0"/>
<feBlend mode="normal" in2="effect1_backgroundBlur_1075_3" result="effect2_dropShadow_1075_3"/>
<feBlend mode="normal" in="SourceGraphic" in2="effect2_dropShadow_1075_3" result="shape"/>
</filter>
<filter id="filter3_d_1075_3" x="487.159" y="148.856" width="240.841" height="50.3562" filterUnits="userSpaceOnUse" color-interpolation-filters="sRGB">
<feFlood flood-opacity="0" result="BackgroundImageFix"/>
<feColorMatrix in="SourceAlpha" type="matrix" values="0 0 0 0 0 0 0 0 0 0 0 0 0 0 0 0 0 0 127 0" result="hardAlpha"/>
<feOffset dy="4"/>
<feGaussianBlur stdDeviation="5"/>
<feColorMatrix type="matrix" values="0 0 0 0 0.1875 0 0 0 0 0.151406 0 0 0 0 0.135937 0 0 0 0.19 0"/>
<feBlend mode="normal" in2="BackgroundImageFix" result="effect1_dropShadow_1075_3"/>
<feBlend mode="normal" in="SourceGraphic" in2="effect1_dropShadow_1075_3" result="shape"/>
</filter>
<filter id="filter4_d_1075_3" x="459.214" y="132.089" width="296.732" height="106.247" filterUnits="userSpaceOnUse" color-interpolation-filters="sRGB">
<feFlood flood-opacity="0" result="BackgroundImageFix"/>
<feColorMatrix in="SourceAlpha" type="matrix" values="0 0 0 0 0 0 0 0 0 0 0 0 0 0 0 0 0 0 127 0" result="hardAlpha"/>
<feOffset dy="15.1781"/>
<feGaussianBlur stdDeviation="18.9726"/>
<feColorMatrix type="matrix" values="0 0 0 0 0.483606 0 0 0 0 0.337125 0 0 0 0 0.290867 0 0 0 0.22 0"/>
<feBlend mode="normal" in2="BackgroundImageFix" result="effect1_dropShadow_1075_3"/>
<feBlend mode="normal" in="SourceGraphic" in2="effect1_dropShadow_1075_3" result="shape"/>
</filter>
<filter id="filter5_d_1075_3" x="487.159" y="198.186" width="240.841" height="50.3562" filterUnits="userSpaceOnUse" color-interpolation-filters="sRGB">
<feFlood flood-opacity="0" result="BackgroundImageFix"/>
<feColorMatrix in="SourceAlpha" type="matrix" values="0 0 0 0 0 0 0 0 0 0 0 0 0 0 0 0 0 0 127 0" result="hardAlpha"/>
<feOffset dy="4"/>
<feGaussianBlur stdDeviation="5"/>
<feColorMatrix type="matrix" values="0 0 0 0 0.1875 0 0 0 0 0.151406 0 0 0 0 0.135937 0 0 0 0.19 0"/>
<feBlend mode="normal" in2="BackgroundImageFix" result="effect1_dropShadow_1075_3"/>
<feBlend mode="normal" in="SourceGraphic" in2="effect1_dropShadow_1075_3" result="shape"/>
</filter>
<filter id="filter6_d_1075_3" x="459.214" y="181.418" width="296.732" height="106.247" filterUnits="userSpaceOnUse" color-interpolation-filters="sRGB">
<feFlood flood-opacity="0" result="BackgroundImageFix"/>
<feColorMatrix in="SourceAlpha" type="matrix" values="0 0 0 0 0 0 0 0 0 0 0 0 0 0 0 0 0 0 127 0" result="hardAlpha"/>
<feOffset dy="15.1781"/>
<feGaussianBlur stdDeviation="18.9726"/>
<feColorMatrix type="matrix" values="0 0 0 0 0.483606 0 0 0 0 0.337125 0 0 0 0 0.290867 0 0 0 0.22 0"/>
<feBlend mode="normal" in2="BackgroundImageFix" result="effect1_dropShadow_1075_3"/>
<feBlend mode="normal" in="SourceGraphic" in2="effect1_dropShadow_1075_3" result="shape"/>
</filter>
<filter id="filter7_d_1075_3" x="487.159" y="247.515" width="240.841" height="50.3562" filterUnits="userSpaceOnUse" color-interpolation-filters="sRGB">
<feFlood flood-opacity="0" result="BackgroundImageFix"/>
<feColorMatrix in="SourceAlpha" type="matrix" values="0 0 0 0 0 0 0 0 0 0 0 0 0 0 0 0 0 0 127 0" result="hardAlpha"/>
<feOffset dy="4"/>
<feGaussianBlur stdDeviation="5"/>
<feColorMatrix type="matrix" values="0 0 0 0 0.1875 0 0 0 0 0.151406 0 0 0 0 0.135937 0 0 0 0.19 0"/>
<feBlend mode="normal" in2="BackgroundImageFix" result="effect1_dropShadow_1075_3"/>
<feBlend mode="normal" in="SourceGraphic" in2="effect1_dropShadow_1075_3" result="shape"/>
</filter>
<filter id="filter8_bd_1075_3" x="78.0617" y="30.1711" width="251.877" height="271.827" filterUnits="userSpaceOnUse" color-interpolation-filters="sRGB">
<feFlood flood-opacity="0" result="BackgroundImageFix"/>
<feGaussianBlur in="BackgroundImageFix" stdDeviation="1.24691"/>
<feComposite in2="SourceAlpha" operator="in" result="effect1_backgroundBlur_1075_3"/>
<feColorMatrix in="SourceAlpha" type="matrix" values="0 0 0 0 0 0 0 0 0 0 0 0 0 0 0 0 0 0 127 0" result="hardAlpha"/>
<feOffset/>
<feGaussianBlur stdDeviation="12.4691"/>
<feColorMatrix type="matrix" values="0 0 0 0 0.420833 0 0 0 0 0.346206 0 0 0 0 0.322639 0 0 0 0.46 0"/>
<feBlend mode="normal" in2="effect1_backgroundBlur_1075_3" result="effect2_dropShadow_1075_3"/>
<feBlend mode="normal" in="SourceGraphic" in2="effect2_dropShadow_1075_3" result="shape"/>
</filter>
<filter id="filter9_bd_1075_3" x="49.3333" y="20.7513" width="269.333" height="290.667" filterUnits="userSpaceOnUse" color-interpolation-filters="sRGB">
<feFlood flood-opacity="0" result="BackgroundImageFix"/>
<feGaussianBlur in="BackgroundImageFix" stdDeviation="1.33333"/>
<feComposite in2="SourceAlpha" operator="in" result="effect1_backgroundBlur_1075_3"/>
<feColorMatrix in="SourceAlpha" type="matrix" values="0 0 0 0 0 0 0 0 0 0 0 0 0 0 0 0 0 0 127 0" result="hardAlpha"/>
<feOffset/>
<feGaussianBlur stdDeviation="13.3333"/>
<feColorMatrix type="matrix" values="0 0 0 0 0.420833 0 0 0 0 0.346206 0 0 0 0 0.322639 0 0 0 0.46 0"/>
<feBlend mode="normal" in2="effect1_backgroundBlur_1075_3" result="effect2_dropShadow_1075_3"/>
<feBlend mode="normal" in="SourceGraphic" in2="effect2_dropShadow_1075_3" result="shape"/>
</filter>
<filter id="filter10_bd_1075_3" x="0.643837" y="0.643837" width="306.597" height="330.882" filterUnits="userSpaceOnUse" color-interpolation-filters="sRGB">
<feFlood flood-opacity="0" result="BackgroundImageFix"/>
<feGaussianBlur in="BackgroundImageFix" stdDeviation="1.51781"/>
<feComposite in2="SourceAlpha" operator="in" result="effect1_backgroundBlur_1075_3"/>
<feColorMatrix in="SourceAlpha" type="matrix" values="0 0 0 0 0 0 0 0 0 0 0 0 0 0 0 0 0 0 127 0" result="hardAlpha"/>
<feOffset/>
<feGaussianBlur stdDeviation="15.1781"/>
<feColorMatrix type="matrix" values="0 0 0 0 0.420833 0 0 0 0 0.346206 0 0 0 0 0.322639 0 0 0 0.46 0"/>
<feBlend mode="normal" in2="effect1_backgroundBlur_1075_3" result="effect2_dropShadow_1075_3"/>
<feBlend mode="normal" in="SourceGraphic" in2="effect2_dropShadow_1075_3" result="shape"/>
</filter>
<filter id="filter11_d_1075_3" x="77.1592" y="147.942" width="240.841" height="50.3562" filterUnits="userSpaceOnUse" color-interpolation-filters="sRGB">
<feFlood flood-opacity="0" result="BackgroundImageFix"/>
<feColorMatrix in="SourceAlpha" type="matrix" values="0 0 0 0 0 0 0 0 0 0 0 0 0 0 0 0 0 0 127 0" result="hardAlpha"/>
<feOffset dy="4"/>
<feGaussianBlur stdDeviation="5"/>
<feColorMatrix type="matrix" values="0 0 0 0 0.1875 0 0 0 0 0.151406 0 0 0 0 0.135937 0 0 0 0.19 0"/>
<feBlend mode="normal" in2="BackgroundImageFix" result="effect1_dropShadow_1075_3"/>
<feBlend mode="normal" in="SourceGraphic" in2="effect1_dropShadow_1075_3" result="shape"/>
</filter>
<filter id="filter12_d_1075_3" x="49.214" y="131.175" width="296.732" height="106.247" filterUnits="userSpaceOnUse" color-interpolation-filters="sRGB">
<feFlood flood-opacity="0" result="BackgroundImageFix"/>
<feColorMatrix in="SourceAlpha" type="matrix" values="0 0 0 0 0 0 0 0 0 0 0 0 0 0 0 0 0 0 127 0" result="hardAlpha"/>
<feOffset dy="15.1781"/>
<feGaussianBlur stdDeviation="18.9726"/>
<feColorMatrix type="matrix" values="0 0 0 0 0.483606 0 0 0 0 0.337125 0 0 0 0 0.290867 0 0 0 0.22 0"/>
<feBlend mode="normal" in2="BackgroundImageFix" result="effect1_dropShadow_1075_3"/>
<feBlend mode="normal" in="SourceGraphic" in2="effect1_dropShadow_1075_3" result="shape"/>
</filter>
<filter id="filter13_d_1075_3" x="77.1592" y="197.271" width="240.841" height="50.3562" filterUnits="userSpaceOnUse" color-interpolation-filters="sRGB">
<feFlood flood-opacity="0" result="BackgroundImageFix"/>
<feColorMatrix in="SourceAlpha" type="matrix" values="0 0 0 0 0 0 0 0 0 0 0 0 0 0 0 0 0 0 127 0" result="hardAlpha"/>
<feOffset dy="4"/>
<feGaussianBlur stdDeviation="5"/>
<feColorMatrix type="matrix" values="0 0 0 0 0.1875 0 0 0 0 0.151406 0 0 0 0 0.135937 0 0 0 0.19 0"/>
<feBlend mode="normal" in2="BackgroundImageFix" result="effect1_dropShadow_1075_3"/>
<feBlend mode="normal" in="SourceGraphic" in2="effect1_dropShadow_1075_3" result="shape"/>
</filter>
<filter id="filter14_d_1075_3" x="49.214" y="180.504" width="296.732" height="106.247" filterUnits="userSpaceOnUse" color-interpolation-filters="sRGB">
<feFlood flood-opacity="0" result="BackgroundImageFix"/>
<feColorMatrix in="SourceAlpha" type="matrix" values="0 0 0 0 0 0 0 0 0 0 0 0 0 0 0 0 0 0 127 0" result="hardAlpha"/>
<feOffset dy="15.1781"/>
<feGaussianBlur stdDeviation="18.9726"/>
<feColorMatrix type="matrix" values="0 0 0 0 0.483606 0 0 0 0 0.337125 0 0 0 0 0.290867 0 0 0 0.22 0"/>
<feBlend mode="normal" in2="BackgroundImageFix" result="effect1_dropShadow_1075_3"/>
<feBlend mode="normal" in="SourceGraphic" in2="effect1_dropShadow_1075_3" result="shape"/>
</filter>
<filter id="filter15_d_1075_3" x="77.1592" y="246.601" width="240.841" height="50.3562" filterUnits="userSpaceOnUse" color-interpolation-filters="sRGB">
<feFlood flood-opacity="0" result="BackgroundImageFix"/>
<feColorMatrix in="SourceAlpha" type="matrix" values="0 0 0 0 0 0 0 0 0 0 0 0 0 0 0 0 0 0 127 0" result="hardAlpha"/>
<feOffset dy="4"/>
<feGaussianBlur stdDeviation="5"/>
<feColorMatrix type="matrix" values="0 0 0 0 0.1875 0 0 0 0 0.151406 0 0 0 0 0.135937 0 0 0 0.19 0"/>
<feBlend mode="normal" in2="BackgroundImageFix" result="effect1_dropShadow_1075_3"/>
<feBlend mode="normal" in="SourceGraphic" in2="effect1_dropShadow_1075_3" result="shape"/>
</filter>
<filter id="filter16_d_1075_3" x="49.214" y="229.833" width="296.732" height="106.247" filterUnits="userSpaceOnUse" color-interpolation-filters="sRGB">
<feFlood flood-opacity="0" result="BackgroundImageFix"/>
<feColorMatrix in="SourceAlpha" type="matrix" values="0 0 0 0 0 0 0 0 0 0 0 0 0 0 0 0 0 0 127 0" result="hardAlpha"/>
<feOffset dy="15.1781"/>
<feGaussianBlur stdDeviation="18.9726"/>
<feColorMatrix type="matrix" values="0 0 0 0 0.483606 0 0 0 0 0.337125 0 0 0 0 0.290867 0 0 0 0.22 0"/>
<feBlend mode="normal" in2="BackgroundImageFix" result="effect1_dropShadow_1075_3"/>
<feBlend mode="normal" in="SourceGraphic" in2="effect1_dropShadow_1075_3" result="shape"/>
</filter>
<linearGradient id="paint0_linear_1075_3" x1="478" y1="313" x2="251.5" y2="313" gradientUnits="userSpaceOnUse">
<stop stop-color="#FC6652" stop-opacity="0"/>
<stop offset="0.169254" stop-color="#FC6652" stop-opacity="0.703938"/>
<stop offset="0.481286" stop-color="#FC6652"/>
<stop offset="0.824459" stop-color="#FC6652" stop-opacity="0.729952"/>
<stop offset="1" stop-color="#FC6652" stop-opacity="0"/>
</linearGradient>
<linearGradient id="paint1_linear_1075_3" x1="457.524" y1="301" x2="274.143" y2="301" gradientUnits="userSpaceOnUse">
<stop/>
<stop stop-color="#FC6652" stop-opacity="0"/>
<stop offset="0.481286" stop-color="#FC6652"/>
<stop offset="1" stop-color="#FC6652" stop-opacity="0"/>
</linearGradient>
<linearGradient id="paint2_linear_1075_3" x1="445.294" y1="46" x2="282.73" y2="46" gradientUnits="userSpaceOnUse">
<stop/>
<stop stop-color="#FC6652" stop-opacity="0"/>
<stop offset="0.481286" stop-color="#FC6652"/>
<stop offset="1" stop-color="#FC6652" stop-opacity="0"/>
</linearGradient>
<linearGradient id="paint3_linear_1075_3" x1="448.294" y1="290" x2="285.73" y2="290" gradientUnits="userSpaceOnUse">
<stop/>
<stop stop-color="#FC6652" stop-opacity="0"/>
<stop offset="0.481286" stop-color="#FC6652"/>
<stop offset="1" stop-color="#FC6652" stop-opacity="0"/>
</linearGradient>
<linearGradient id="paint4_linear_1075_3" x1="454.524" y1="35" x2="271.143" y2="35" gradientUnits="userSpaceOnUse">
<stop/>
<stop stop-color="#FC6652" stop-opacity="0"/>
<stop offset="0.481286" stop-color="#FC6652"/>
<stop offset="1" stop-color="#FC6652" stop-opacity="0"/>
</linearGradient>
<linearGradient id="paint5_linear_1075_3" x1="475" y1="23" x2="248.5" y2="23" gradientUnits="userSpaceOnUse">
<stop stop-color="#FC6652" stop-opacity="0"/>
<stop offset="0.169254" stop-color="#FC6652" stop-opacity="0.703938"/>
<stop offset="0.481286" stop-color="#FC6652"/>
<stop offset="0.824459" stop-color="#FC6652" stop-opacity="0.729952"/>
<stop offset="1" stop-color="#FC6652" stop-opacity="0"/>
</linearGradient>
<linearGradient id="paint6_linear_1075_3" x1="342" y1="159" x2="379" y2="159" gradientUnits="userSpaceOnUse">
<stop stop-color="#FC6652"/>
<stop offset="1" stop-color="#FC6652" stop-opacity="0"/>
</linearGradient>
<linearGradient id="paint7_linear_1075_3" x1="388" y1="180.5" x2="347.5" y2="180.5" gradientUnits="userSpaceOnUse">
<stop stop-color="#FC6652"/>
<stop offset="1" stop-color="#FC6652" stop-opacity="0"/>
</linearGradient>
</defs>
</svg>
