<svg width="33" height="35" viewBox="0 0 33 35" fill="none" xmlns="http://www.w3.org/2000/svg">
<path fill-rule="evenodd" clip-rule="evenodd" d="M29.7951 23.7066C31.0907 21.4036 31.8297 18.7455 31.8297 15.9149C31.8297 7.12532 24.7044 0 15.9149 0C7.12532 0 0 7.12532 0 15.9149C0 24.7044 7.12532 31.8297 15.9149 31.8297C17.6005 31.8297 19.2249 31.5677 20.7496 31.0821L13.9929 24.3254C10.1543 23.4519 7.28943 20.0179 7.28943 15.9149C7.28943 11.1512 11.1512 7.28943 15.9149 7.28943C20.6785 7.28943 24.5403 11.1512 24.5403 15.9149C24.5403 16.6906 24.4379 17.4423 24.2459 18.1574L29.7951 23.7066Z" fill="#FC6652"/>
<rect width="20.1588" height="6.54486" rx="3.27243" transform="matrix(-0.707107 -0.707107 -0.707107 0.707107 32.675 30.1697)" fill="#494947"/>
</svg>
